{"glyphs":{"0":{"ha":935,"x_min":63,"x_max":872,"o":"m 429 0 q 154 128 243 0 q 63 465 65 256 q 65 522 63 500 q 201 915 86 774 q 511 1057 317 1057 q 515 1057 514 1057 q 771 936 674 1054 q 872 592 868 818 q 800 253 872 404 q 644 67 742 135 q 429 0 546 0 m 651 631 q 504 924 651 924 q 349 807 404 924 q 279 451 294 690 q 317 207 285 271 q 360 156 331 178 q 433 131 390 131 q 577 238 518 131 q 650 557 636 346 q 651 631 651 596 z "},"1":{"ha":707,"x_min":17,"x_max":676,"o":"m 660 0 l 17 0 l 36 150 l 258 150 l 344 783 l 89 768 l 104 893 q 408 1057 360 958 l 578 1057 l 460 150 l 676 150 l 660 0 z "},"2":{"ha":856,"x_min":35,"x_max":801,"o":"m 792 314 q 800 258 800 279 q 737 51 800 110 q 567 -7 674 -7 q 386 19 490 -7 q 240 44 282 44 q 236 44 238 44 q 88 0 151 44 l 36 122 l 35 122 q 168 255 68 165 q 290 365 268 344 q 350 417 311 385 q 412 471 389 450 q 468 528 435 492 q 521 597 501 565 q 579 769 579 692 q 539 886 579 847 q 447 926 499 925 q 344 886 379 924 q 308 807 310 849 q 314 744 307 765 l 125 744 q 181 942 113 861 q 454 1057 275 1057 q 699 982 604 1057 q 793 768 793 907 q 678 506 793 636 q 621 446 639 463 q 333 208 485 319 q 450 186 360 204 q 574 168 547 168 q 660 206 631 168 q 708 314 690 243 l 792 314 z "},"3":{"ha":914,"x_min":49,"x_max":853,"o":"m 150 788 q 181 911 150 857 q 263 996 211 965 q 478 1057 365 1057 q 724 987 628 1057 q 819 786 821 917 q 646 543 815 614 q 794 463 738 525 q 851 311 851 400 q 732 78 851 156 q 457 0 613 0 q 49 192 189 0 l 183 317 q 294 192 215 246 q 455 136 376 136 q 582 184 533 136 q 631 303 631 232 q 607 381 631 347 q 371 461 547 461 q 354 461 363 461 l 269 461 l 281 588 q 451 594 382 588 q 569 644 519 601 q 624 776 624 693 q 583 880 624 835 q 464 926 542 925 q 367 887 399 924 q 336 810 336 850 q 344 744 336 769 l 153 744 q 150 788 150 772 z "},"4":{"ha":844,"x_min":17,"x_max":811,"o":"m 153 1004 q 306 1067 218 1067 q 398 1035 365 1067 q 431 954 431 1004 q 403 848 431 904 q 363 764 376 792 q 324 692 350 736 q 286 626 299 647 q 215 506 271 597 l 447 506 l 528 990 q 604 1001 557 1001 q 680 983 651 1001 q 708 915 708 965 q 706 883 708 897 q 635 492 704 868 q 810 275 810 450 q 807 229 810 253 q 730 53 793 107 q 580 0 667 0 q 444 48 493 0 q 396 172 396 96 q 399 213 396 199 l 421 346 l 74 342 l 36 422 q 17 476 17 468 q 18 486 17 485 q 229 908 215 743 q 229 917 229 913 q 153 1004 229 978 m 699 256 q 610 350 699 342 q 586 200 586 219 q 625 142 586 142 q 672 164 653 142 q 699 256 699 199 z "},"5":{"ha":842,"x_min":28,"x_max":794,"o":"m 578 888 l 390 899 l 357 682 q 438 690 393 690 q 537 674 482 690 q 646 626 592 658 q 735 530 700 593 q 769 383 769 467 q 656 99 769 199 q 349 0 543 0 q 28 135 156 0 l 121 283 q 350 140 201 140 q 494 203 438 140 q 550 365 550 267 q 487 516 550 464 q 327 568 424 568 q 149 525 231 568 l 236 1056 l 296 1056 q 381 1056 340 1056 q 792 1086 719 1056 q 793 1035 793 1063 q 785 974 793 1007 q 749 921 778 942 q 681 894 719 900 q 578 888 643 888 z "},"6":{"ha":865,"x_min":40,"x_max":811,"o":"m 503 688 q 730 589 650 688 q 810 364 810 490 q 699 99 810 197 q 446 0 589 0 q 273 34 347 0 q 154 122 199 68 q 42 458 42 257 q 44 521 42 489 q 198 916 64 775 q 549 1057 332 1057 q 796 978 700 1057 l 732 864 q 549 926 653 926 q 385 861 450 926 q 292 703 321 796 q 256 449 256 582 q 279 282 256 358 q 442 131 326 131 q 544 190 497 131 q 593 346 590 249 q 593 367 593 356 q 407 565 593 565 q 340 554 383 565 q 289 535 296 543 l 299 640 q 503 688 383 688 z "},"7":{"ha":828,"x_min":35,"x_max":808,"o":"m 483 42 q 346 -18 422 -18 q 262 8 304 -18 q 206 100 219 35 q 201 139 201 119 q 204 172 201 158 q 214 206 207 186 q 226 236 221 225 q 242 269 232 247 q 258 300 253 290 l 344 479 l 144 479 l 158 599 l 401 599 l 544 900 l 361 900 q 310 791 357 839 q 194 742 264 743 q 79 782 124 742 q 35 890 35 822 q 87 1007 35 957 q 247 1057 139 1057 l 800 1057 q 808 1003 808 1033 q 785 942 808 974 l 617 599 l 743 599 l 728 479 l 557 479 l 465 292 q 425 146 425 211 q 483 42 425 81 m 158 872 q 189 853 158 853 q 260 900 240 853 q 192 900 225 900 q 158 872 158 900 z "},"8":{"ha":849,"x_min":61,"x_max":786,"o":"m 610 556 q 699 486 669 513 q 756 411 729 460 q 782 302 782 363 q 760 188 782 242 q 561 19 706 63 q 414 -1 496 -1 q 149 85 232 -1 q 63 279 63 174 q 261 567 63 465 q 146 778 146 672 q 244 981 146 906 q 476 1057 343 1057 q 697 992 608 1057 q 786 810 785 926 q 610 556 790 663 m 630 811 q 630 837 630 811 q 583 894 629 863 q 483 926 538 926 q 387 892 429 926 q 344 808 344 858 q 403 708 344 756 q 494 639 426 689 q 603 719 576 679 q 630 811 631 760 m 399 131 q 435 131 399 131 q 522 168 472 131 q 572 261 572 206 q 564 315 572 293 q 532 360 556 338 q 494 394 508 383 q 438 434 481 406 q 378 474 394 463 q 260 392 301 440 q 219 293 219 343 q 271 174 219 217 q 399 131 325 131 z "},"9":{"ha":932,"x_min":63,"x_max":869,"o":"m 435 379 q 192 483 272 379 q 122 699 122 576 q 125 739 122 711 q 241 977 143 892 q 490 1063 339 1063 q 640 1036 574 1063 q 748 967 706 1010 q 818 865 790 924 q 869 621 869 757 q 865 542 869 579 q 716 144 840 286 q 368 -1 592 1 q 226 17 290 -1 q 131 56 163 36 q 63 108 100 75 l 164 238 q 256 160 206 185 q 381 135 306 135 q 654 575 619 135 q 658 660 658 650 q 503 932 658 932 q 385 875 429 932 q 333 700 333 807 q 377 568 333 629 q 517 507 421 507 q 581 518 540 507 q 629 538 622 529 l 618 436 q 435 379 542 379 z "}," ":{"ha":306,"x_min":0,"x_max":0,"o":""},"!":{"ha":478,"x_min":54,"x_max":450,"o":"m 217 1154 q 314 1168 244 1168 q 450 1104 450 1168 q 449 1092 450 1099 l 276 364 l 128 364 l 217 1154 m 87 167 q 103 183 87 167 q 167 200 119 200 q 247 167 214 200 q 281 86 281 133 q 247 6 281 39 q 167 -26 214 -26 q 87 6 119 -26 q 54 86 54 39 q 87 167 54 133 z "},"\"":{"ha":600,"x_min":42,"x_max":558,"o":"m 64 988 q 64 1010 64 988 q 97 1065 64 1032 q 178 1099 129 1099 q 262 1068 226 1099 q 297 977 297 1038 q 236 837 297 917 q 117 710 175 757 q 106 708 114 708 q 72 717 97 708 q 42 731 47 725 q 156 875 107 806 q 90 913 117 882 q 64 988 64 944 m 325 988 q 325 1010 325 988 q 358 1065 325 1032 q 439 1099 390 1099 q 523 1068 488 1099 q 558 977 558 1038 q 497 837 558 917 q 378 710 436 757 q 367 708 375 708 q 333 717 358 708 q 303 731 308 725 q 417 875 368 806 q 351 913 378 882 q 325 988 325 944 z "},"#":{"ha":893,"x_min":21,"x_max":865,"o":"m 740 393 l 725 288 l 535 288 l 414 -11 l 308 -11 l 429 288 l 268 288 l 147 -11 l 42 -11 l 163 288 l 21 288 l 33 393 l 206 393 l 288 593 l 132 593 l 144 699 l 331 699 l 442 974 l 547 974 l 436 699 l 597 699 l 708 974 l 814 974 l 703 699 l 865 699 l 850 593 l 660 593 l 578 393 l 740 393 m 311 393 l 472 393 l 554 593 l 393 593 l 311 393 z "},"$":{"ha":678,"x_min":64,"x_max":724,"o":"m 640 1007 q 722 833 722 946 q 689 700 722 768 l 585 700 q 618 815 618 756 q 618 825 618 821 q 592 893 618 863 l 475 618 q 517 547 488 596 q 560 473 547 497 q 590 411 572 449 q 625 258 625 336 q 541 68 625 142 q 338 -6 457 -6 q 219 17 272 -6 l 194 -42 l 104 -42 l 149 63 q 65 258 65 139 q 108 379 65 322 l 232 376 q 188 274 188 319 q 204 193 188 228 l 331 492 q 306 535 325 503 q 281 579 288 568 q 260 619 275 590 q 240 661 246 647 q 223 699 233 675 q 208 739 213 722 q 196 821 196 789 q 272 988 196 921 q 479 1056 347 1056 q 565 1044 524 1056 l 571 1057 l 661 1057 l 640 1007 m 494 935 q 418 903 447 935 q 389 820 389 872 q 422 707 389 768 l 518 933 q 494 935 511 935 m 317 117 q 403 149 368 117 q 436 228 439 181 q 381 397 433 297 l 267 129 q 317 117 292 117 z "},"%":{"ha":1192,"x_min":28,"x_max":1153,"o":"m 28 703 l 29 736 q 117 972 44 888 q 310 1057 190 1057 q 465 986 406 1057 q 524 779 524 915 l 522 733 q 434 512 506 597 q 258 426 363 426 q 85 504 143 426 q 28 703 28 582 m 889 1057 l 1004 1057 l 229 -139 l 114 -139 l 889 1057 m 157 717 q 156 683 156 708 q 158 631 156 658 q 169 572 161 604 q 256 504 185 504 q 347 569 308 504 q 394 760 385 633 q 397 790 397 779 q 306 979 397 978 q 206 910 246 979 q 157 717 165 840 m 657 278 l 658 310 q 748 546 675 461 q 942 631 821 631 q 1095 560 1038 631 q 1153 354 1153 489 l 1151 307 q 1066 85 1138 171 q 892 -1 994 -1 q 872 0 882 -1 q 713 81 769 6 q 657 278 657 156 m 785 268 q 876 76 785 81 q 883 76 879 76 q 976 142 938 76 q 1024 332 1015 207 q 1028 364 1028 361 q 935 551 1028 550 q 835 483 875 551 q 786 290 796 414 q 785 268 785 281 z "},"&":{"ha":913,"x_min":56,"x_max":888,"o":"m 625 -18 q 608 74 625 15 q 348 -12 485 -12 q 133 65 211 -12 q 56 247 56 142 q 129 447 56 361 q 311 586 185 511 q 246 813 246 713 q 321 987 246 913 q 529 1061 396 1061 q 681 1013 622 1061 q 740 890 740 964 q 540 588 740 750 q 615 478 554 565 q 707 340 676 390 q 735 444 735 397 q 671 543 735 540 q 678 575 671 553 q 694 611 685 597 q 725 636 704 625 q 772 647 746 647 q 855 609 822 647 q 888 513 888 571 q 883 469 888 492 q 768 229 860 354 q 821 28 821 113 q 794 -108 821 -56 q 633 -228 749 -197 q 556 -237 594 -237 l 539 -237 l 539 -153 q 625 -18 625 -110 m 530 939 q 509 939 530 939 q 460 913 488 939 q 431 839 433 888 q 482 682 431 778 q 575 765 539 726 q 617 852 617 813 q 596 914 617 892 q 530 939 572 939 m 251 278 l 250 261 q 289 158 250 203 q 408 113 328 113 q 565 172 488 113 q 471 331 525 249 q 399 440 417 413 l 383 465 q 283 367 310 408 q 251 278 257 325 z "},"'":{"ha":833,"x_min":319,"x_max":499,"o":"m 321 1104 q 333 1113 321 1113 l 486 1113 q 497 1107 497 1113 q 496 1090 497 1101 l 456 721 q 442 710 454 710 l 350 710 q 343 744 346 710 q 331 926 340 778 l 321 1104 z "},"(":{"ha":619,"x_min":28,"x_max":592,"o":"m 217 338 q 264 92 217 199 q 458 -101 329 -58 l 442 -219 q 115 26 224 -156 q 29 361 29 171 q 222 879 29 685 q 592 1058 383 1040 l 579 942 q 224 454 278 890 q 217 338 217 393 z "},")":{"ha":619,"x_min":28,"x_max":592,"o":"m 590 478 q 397 -40 590 154 q 28 -219 236 -201 l 40 -103 q 396 385 342 -51 q 403 501 403 446 q 356 747 403 640 q 161 940 290 897 l 178 1058 q 504 813 396 994 q 590 478 590 668 z "},"*":{"ha":540,"x_min":63,"x_max":481,"o":"m 192 969 q 179 997 179 985 q 215 1056 179 1040 q 242 1060 229 1060 q 274 1049 256 1060 q 290 1004 292 1038 l 283 854 l 192 969 m 408 1015 q 422 1015 408 1015 q 451 999 436 1015 q 467 968 467 982 q 431 907 467 924 l 289 854 l 361 988 q 408 1015 379 1015 m 136 803 q 112 800 125 800 q 81 815 99 800 q 63 860 64 829 q 86 901 65 889 q 121 913 107 913 q 146 908 135 913 l 278 850 l 136 803 m 475 792 q 479 768 479 781 q 469 742 479 756 q 425 714 453 714 q 379 733 397 714 l 288 849 l 433 822 q 475 792 463 819 m 289 700 q 269 656 289 669 q 235 642 249 642 q 214 643 222 642 q 175 694 175 657 q 189 731 175 713 l 283 847 l 289 700 z "},"+":{"ha":614,"x_min":-19,"x_max":650,"o":"m 338 165 l 210 165 l 244 461 l -19 461 l -6 581 l 258 581 l 292 872 l 418 872 l 385 581 l 650 581 l 636 461 l 371 461 l 338 165 z "},",":{"ha":533,"x_min":139,"x_max":394,"o":"m 161 103 q 161 125 161 103 q 194 181 161 147 q 275 214 226 214 q 359 183 324 214 q 394 92 394 153 q 333 -48 394 32 q 214 -175 272 -128 q 203 -176 211 -176 q 169 -168 194 -176 q 139 -154 144 -160 q 253 -10 204 -79 q 188 28 214 -3 q 161 103 161 60 z "},"-":{"ha":636,"x_min":46,"x_max":589,"o":"m 58 579 l 589 579 l 576 460 l 46 460 l 58 579 z "},".":{"ha":504,"x_min":139,"x_max":365,"o":"m 172 167 q 188 183 172 167 q 251 200 204 200 q 332 167 299 200 q 365 86 365 133 q 332 6 365 39 q 251 -26 299 -26 q 172 6 204 -26 q 139 86 139 39 q 172 167 139 133 z "},"/":{"ha":529,"x_min":28,"x_max":501,"o":"m 386 1057 l 501 1057 l 143 -139 l 28 -139 l 386 1057 z "},":":{"ha":404,"x_min":68,"x_max":351,"o":"m 158 653 q 174 669 158 653 q 238 686 190 686 q 318 653 285 686 q 351 572 351 619 q 318 492 351 525 q 238 460 285 460 q 158 492 190 460 q 125 572 125 525 q 158 653 125 619 m 101 167 q 117 183 101 167 q 181 200 133 200 q 261 167 228 200 q 294 86 294 133 q 261 6 294 39 q 181 -26 228 -26 q 101 6 133 -26 q 68 86 68 39 q 101 167 68 133 z "},";":{"ha":501,"x_min":90,"x_max":411,"o":"m 217 639 q 234 656 217 639 q 297 672 250 672 q 378 639 344 672 q 411 558 411 606 q 378 478 411 511 q 297 446 344 446 q 217 478 250 446 q 185 558 185 511 q 217 639 185 606 m 113 103 q 113 125 113 103 q 145 181 113 147 q 226 214 178 214 q 310 183 275 214 q 346 92 346 153 q 285 -48 346 32 q 165 -175 224 -128 q 154 -176 163 -176 q 121 -168 146 -176 q 90 -154 96 -160 q 204 -10 156 -79 q 139 28 165 -3 q 113 103 113 60 z "},"<":{"ha":954,"x_min":39,"x_max":926,"o":"m 860 218 l 843 85 l 39 508 l 926 822 l 908 685 l 329 486 l 860 218 z "},"=":{"ha":728,"x_min":13,"x_max":714,"o":"m 43 549 l 60 668 l 714 668 l 699 549 l 43 549 m 669 299 l 13 299 l 31 418 l 685 418 l 669 299 z "},">":{"ha":954,"x_min":39,"x_max":926,"o":"m 57 264 l 636 463 l 106 731 l 122 864 l 926 440 l 39 126 l 57 264 z "},"?":{"ha":726,"x_min":111,"x_max":715,"o":"m 111 867 q 205 1052 115 978 q 424 1126 294 1126 q 634 1058 554 1126 q 714 879 714 989 q 714 872 714 876 q 543 569 707 694 q 467 515 517 549 q 390 461 417 481 q 339 411 364 442 q 308 331 307 368 q 311 314 310 317 l 176 314 q 158 358 164 326 q 153 401 153 390 q 194 522 153 468 q 285 611 235 575 q 386 684 336 647 q 472 772 436 721 q 510 885 510 829 q 479 976 510 942 q 386 1010 449 1010 q 285 964 324 1010 q 244 852 244 917 q 271 750 244 788 l 136 750 q 111 867 111 811 m 147 149 q 164 166 147 149 q 228 183 181 183 q 308 149 275 183 q 342 68 342 115 q 308 -12 342 21 q 228 -44 275 -44 q 147 -12 181 -44 q 114 68 114 21 q 147 149 114 115 z "},"@":{"ha":1036,"x_min":63,"x_max":1001,"o":"m 221 668 q 257 697 221 668 q 379 757 293 726 q 551 788 465 788 q 713 765 638 788 q 855 697 789 742 q 961 573 921 651 q 1001 393 1001 494 q 938 158 1001 250 q 778 67 875 67 q 644 190 663 67 q 571 98 618 133 q 461 63 524 63 q 310 124 365 63 q 256 290 256 186 q 321 492 256 394 q 413 571 353 540 q 547 601 474 601 q 685 581 619 601 q 738 589 708 589 q 792 575 768 589 q 747 210 747 278 q 796 158 747 158 q 868 220 839 158 q 897 383 897 282 q 806 610 897 529 q 552 690 715 690 q 279 589 389 690 q 169 300 169 488 q 264 74 169 164 q 496 -15 358 -15 q 587 -7 560 -15 q 631 7 614 1 l 651 14 q 663 -14 657 11 q 668 -53 668 -39 q 665 -74 668 -68 q 489 -106 578 -106 q 190 -1 317 -106 q 63 290 63 103 q 106 512 63 414 q 221 668 149 610 m 574 506 q 438 448 490 506 q 386 299 386 390 q 415 203 386 235 q 490 172 444 172 q 569 208 535 172 q 618 313 604 243 l 643 497 q 574 506 599 506 z "},"A":{"ha":992,"x_min":47,"x_max":1161,"o":"m 844 -3 q 727 48 767 -3 q 674 238 688 99 q 657 425 665 310 q 461 364 560 396 l 414 233 q 394 180 400 196 q 374 132 389 164 q 349 85 360 100 q 320 49 339 71 q 282 17 301 26 q 175 -8 232 -8 q 83 33 118 -8 q 47 133 47 74 q 50 168 47 150 q 324 411 68 301 q 564 1033 396 596 q 676 1058 608 1058 q 706 1058 692 1058 q 740 1058 719 1058 q 790 1050 760 1058 q 854 240 792 985 q 869 159 860 178 q 903 140 879 140 q 1006 193 942 140 q 1122 325 1071 246 l 1161 231 l 1128 186 q 844 -3 982 -3 m 624 817 l 503 479 q 647 528 600 513 l 624 817 m 275 290 q 146 163 146 225 q 179 118 146 118 q 219 154 204 118 q 275 290 238 193 z "},"B":{"ha":982,"x_min":44,"x_max":988,"o":"m 58 751 q 175 970 58 883 q 483 1057 292 1057 q 665 1037 585 1057 q 793 986 746 1017 q 872 915 840 956 q 924 760 925 846 q 857 608 924 675 q 696 539 790 542 q 901 461 814 531 q 988 286 988 392 q 881 69 988 147 q 620 -8 774 -8 q 411 32 467 -8 l 454 149 q 597 117 515 117 q 729 165 678 117 q 781 292 781 213 q 710 425 781 371 q 519 479 640 479 l 532 582 q 673 622 615 582 q 733 740 731 661 q 661 874 735 819 q 444 931 582 931 q 268 884 354 931 q 182 760 182 838 q 213 697 182 722 q 293 665 243 671 l 278 563 q 115 622 172 567 q 58 751 58 678 m 456 267 q 369 56 433 118 q 219 -6 306 -6 q 89 39 133 -6 q 44 153 44 83 q 293 432 44 317 q 313 590 300 490 q 334 750 326 689 q 344 831 342 811 q 476 867 401 867 q 543 860 511 867 l 456 267 m 147 171 q 194 121 147 121 q 235 147 214 121 q 265 228 257 172 l 278 314 q 147 171 147 240 z "},"C":{"ha":799,"x_min":42,"x_max":938,"o":"m 458 -8 q 142 101 243 -8 q 42 391 42 211 q 103 719 42 571 q 288 962 165 867 q 552 1057 410 1057 q 776 988 694 1057 q 857 803 857 919 q 785 611 857 688 q 618 535 714 535 q 469 577 522 535 q 417 667 417 619 q 455 742 417 715 q 567 769 493 769 q 549 722 549 751 q 567 669 549 692 q 622 647 585 647 q 697 687 660 647 q 735 792 735 726 q 695 896 735 857 q 583 935 656 935 q 412 858 489 935 q 294 664 335 782 q 254 415 254 546 q 303 217 254 303 q 377 146 328 172 q 493 119 426 119 q 713 192 607 119 q 890 381 818 265 l 938 296 q 732 77 856 163 q 458 -8 608 -8 z "},"D":{"ha":1033,"x_min":42,"x_max":1038,"o":"m 63 744 q 192 978 63 893 q 489 1063 321 1063 q 867 939 704 1063 q 992 773 947 876 q 1036 544 1036 669 q 896 144 1036 299 q 531 -12 750 -12 q 428 0 482 -12 q 342 33 374 13 q 210 -6 290 -6 q 86 39 131 -6 q 42 153 42 83 q 290 432 42 317 q 310 590 297 490 q 331 750 324 689 q 342 831 339 811 q 474 867 399 867 q 540 860 508 867 l 453 267 q 418 135 440 188 q 488 124 461 124 q 735 244 647 124 q 825 550 825 371 q 660 879 825 779 q 458 935 568 935 q 236 858 318 935 q 189 754 189 815 q 208 694 189 722 q 276 661 228 665 l 263 571 q 112 627 161 576 q 63 744 63 678 m 144 171 q 192 121 144 121 q 233 147 211 121 q 263 228 254 172 l 275 314 q 144 171 144 240 z "},"E":{"ha":668,"x_min":31,"x_max":907,"o":"m 325 485 q 244 315 244 428 q 295 182 244 244 q 467 119 346 119 q 696 201 588 119 q 860 381 804 283 l 907 296 q 408 -8 728 -8 q 140 77 250 -8 q 31 278 31 163 q 210 569 31 479 q 150 742 150 643 q 262 964 150 871 q 521 1057 374 1057 q 748 982 668 1057 q 828 785 828 907 l 696 785 q 656 898 697 860 q 542 936 615 936 q 411 883 469 936 q 346 750 346 826 q 388 618 346 674 q 599 600 526 635 q 643 534 643 579 q 592 471 643 489 q 471 453 542 453 q 325 485 400 453 z "},"F":{"ha":772,"x_min":35,"x_max":849,"o":"m 635 818 q 481 836 579 818 q 224 731 342 731 q 215 731 219 731 q 83 776 131 732 q 35 892 35 819 q 83 1011 35 965 q 225 1057 131 1057 q 425 1015 288 1057 q 640 972 569 972 q 794 1056 757 972 l 849 1018 q 635 818 818 818 m 172 850 q 232 815 172 815 q 378 860 292 815 q 210 890 256 890 q 183 878 194 890 q 172 850 172 867 m 551 747 l 529 599 l 736 599 q 749 542 749 569 q 722 495 749 514 q 656 476 696 476 l 510 476 l 508 464 q 683 217 683 381 q 618 42 683 93 q 464 -8 553 -8 q 326 37 375 -8 q 278 157 278 82 q 281 189 278 169 l 318 476 l 188 476 q 201 599 196 556 l 335 599 l 350 721 q 471 756 422 756 q 551 747 519 756 m 507 118 q 565 142 540 118 q 590 219 590 167 q 496 379 590 324 q 473 187 474 225 q 483 133 472 149 q 507 118 493 118 z "},"G":{"ha":875,"x_min":40,"x_max":1000,"o":"m 460 -382 q 327 -334 382 -382 q 272 -187 272 -286 q 367 -3 272 -89 q 119 127 199 21 q 40 402 40 233 q 102 719 40 571 q 286 962 164 867 q 551 1057 408 1057 q 774 988 693 1057 q 856 800 856 919 q 785 608 856 681 q 617 535 714 535 q 468 577 521 535 q 415 667 415 619 q 453 742 415 715 q 565 769 492 769 q 547 722 547 751 q 565 669 547 692 q 620 647 583 647 q 690 686 657 647 q 722 792 722 725 q 688 897 722 860 q 582 935 653 935 q 410 858 488 935 q 293 664 333 782 q 253 415 253 546 q 301 217 253 303 q 376 146 326 172 q 473 119 425 119 q 550 124 521 119 l 585 426 l 779 426 l 749 200 q 946 372 899 279 l 1000 296 q 733 85 910 157 l 715 -65 q 675 -235 704 -167 q 606 -333 646 -303 q 533 -372 567 -362 q 460 -382 500 -382 m 396 -183 q 411 -226 396 -208 q 447 -244 426 -244 q 478 -237 467 -244 q 501 -201 489 -231 q 521 -119 514 -172 l 535 -6 q 396 -183 396 -92 z "},"H":{"ha":1007,"x_min":63,"x_max":982,"o":"m 776 1025 q 830 1047 785 1036 q 915 1057 875 1057 q 982 1046 956 1057 l 846 0 l 657 0 l 711 469 l 693 464 q 461 390 565 426 l 442 238 q 211 -8 408 -8 q 101 34 140 -8 q 63 143 63 76 q 272 411 63 292 l 343 1014 q 413 1044 369 1032 q 496 1057 456 1057 q 549 1056 536 1057 l 476 503 q 690 568 561 533 l 724 576 l 776 1025 m 160 164 q 200 119 160 119 q 229 133 222 119 q 240 155 236 146 q 246 179 243 164 q 250 206 249 194 q 253 238 251 218 q 256 268 254 257 l 258 289 q 160 164 160 221 z "},"I":{"ha":671,"x_min":56,"x_max":774,"o":"m 772 900 q 728 910 750 910 q 687 883 707 910 q 660 807 667 857 l 588 292 q 491 71 568 151 q 299 -10 414 -10 q 120 55 183 -10 q 57 209 57 119 q 119 361 57 299 q 275 424 181 424 q 367 415 333 424 l 360 331 q 287 336 336 336 q 199 303 238 336 q 161 219 161 269 q 189 142 161 169 q 256 115 217 115 q 392 288 372 115 q 446 753 429 632 q 299 724 363 724 q 144 771 197 724 q 90 894 90 818 q 145 1015 90 971 q 283 1058 200 1058 q 431 1026 335 1058 q 581 994 528 994 q 739 1043 675 994 q 774 928 774 994 q 772 900 774 914 m 228 857 q 251 821 228 836 q 320 806 274 806 q 442 847 367 806 q 331 876 388 860 q 263 892 274 892 q 228 857 228 892 z "},"J":{"ha":581,"x_min":1,"x_max":806,"o":"m 711 897 q 668 907 689 907 q 626 881 647 907 q 599 804 606 854 l 529 318 q 753 432 704 394 l 806 340 q 706 283 764 308 q 593 237 647 258 q 513 204 539 215 l 467 -121 q 372 -317 449 -254 q 202 -381 294 -381 q 56 -313 110 -381 q 1 -162 1 -246 q 321 225 1 56 l 335 338 q 389 753 361 576 q 223 721 310 721 q 83 768 136 721 q 29 892 29 815 q 84 1012 29 968 q 222 1056 139 1056 q 370 1024 274 1056 q 519 992 467 992 q 678 1040 614 992 q 713 925 713 992 q 711 897 713 911 m 167 854 q 190 818 167 833 q 259 803 213 803 q 381 844 306 803 q 269 873 326 857 q 201 889 213 889 q 167 854 167 889 m 306 104 q 107 -149 107 -15 q 126 -212 107 -186 q 183 -243 149 -243 q 242 -222 217 -243 q 272 -156 267 -201 l 306 104 z "},"K":{"ha":947,"x_min":7,"x_max":1079,"o":"m 1035 299 l 1079 231 q 1022 104 1058 156 q 946 31 986 53 q 811 -8 875 -8 q 647 56 700 -8 q 590 229 593 121 q 569 447 586 404 q 493 496 553 490 l 503 600 q 542 611 528 604 q 578 639 556 618 q 647 835 625 681 q 722 1004 665 951 q 843 1057 778 1057 q 958 1019 908 1057 q 1008 896 1008 981 q 927 701 1008 783 q 701 553 846 619 q 775 474 751 529 q 801 357 799 418 q 806 239 804 296 q 885 106 811 106 q 1035 299 971 106 m 169 -8 q 51 36 96 -8 q 7 150 7 81 q 253 429 7 313 q 281 661 263 511 q 322 1019 315 969 q 441 1056 379 1056 q 535 1049 503 1056 l 432 264 q 169 -8 390 -8 m 911 864 q 899 896 911 885 q 876 907 888 907 q 859 904 865 907 q 848 895 853 901 q 840 883 843 889 q 834 864 838 876 q 828 842 831 851 q 822 817 826 833 q 811 772 818 800 q 794 714 804 743 q 911 864 911 789 m 110 168 q 157 118 110 118 q 198 144 176 118 q 228 225 219 169 l 239 311 q 110 168 110 236 z "},"L":{"ha":644,"x_min":0,"x_max":790,"o":"m 538 121 q 572 115 553 115 q 608 119 590 115 q 640 140 625 124 q 663 165 654 156 q 683 208 671 175 q 721 318 699 247 q 790 236 779 264 q 556 -8 724 -8 q 354 94 476 -8 q 156 -8 290 -8 q 48 32 96 -8 q 0 147 0 72 q 50 270 0 222 q 179 318 100 318 q 222 315 194 318 l 242 492 q 53 442 181 472 l 53 546 q 253 599 157 569 l 281 825 q 517 1057 310 1057 q 648 1012 599 1057 q 697 885 697 967 q 443 567 697 688 l 401 239 l 400 225 q 538 121 503 133 m 593 874 q 544 932 593 932 q 471 794 486 932 l 457 685 q 593 874 593 765 m 106 157 q 153 115 106 115 q 210 197 199 115 q 160 208 183 208 q 122 193 138 208 q 106 157 106 178 z "},"M":{"ha":1125,"x_min":14,"x_max":1294,"o":"m 917 1047 q 999 1058 946 1058 q 1093 1051 1051 1058 q 1026 473 1050 732 q 999 200 1001 214 q 997 175 997 186 q 1032 139 999 139 q 1264 331 1115 139 q 1294 232 1290 257 q 1134 59 1228 126 q 957 -8 1040 -8 q 842 35 874 -8 q 810 131 810 78 q 813 179 810 143 q 868 629 817 215 l 640 103 l 522 103 l 454 621 l 357 190 q 280 39 333 88 q 163 -10 226 -10 q 58 28 99 -10 q 15 142 15 68 q 243 393 15 289 q 376 1050 367 986 q 466 1058 410 1058 q 543 1056 522 1058 l 553 1056 l 639 410 l 917 1040 l 917 1047 m 114 165 q 149 121 114 121 q 188 158 172 121 q 219 279 207 204 q 114 165 114 219 z "},"N":{"ha":1014,"x_min":36,"x_max":1151,"o":"m 822 856 q 883 1010 838 963 q 1004 1057 929 1057 q 1115 1013 1079 1057 q 1150 925 1150 969 q 1147 897 1150 911 q 943 657 1117 743 l 846 0 l 613 0 l 447 732 l 371 190 q 308 39 356 88 q 196 -10 260 -10 q 90 28 132 -10 q 38 135 47 65 q 36 157 36 146 q 243 393 36 294 l 303 840 q 363 856 338 856 q 407 851 389 856 q 306 901 375 901 q 183 829 236 901 l 157 949 q 249 1022 183 985 q 395 1058 315 1058 q 531 1010 475 1058 q 611 850 586 963 l 742 300 l 822 856 m 961 776 q 1047 890 1047 838 q 1040 913 1047 900 q 1019 925 1033 925 q 983 896 993 925 q 961 776 969 856 m 229 278 q 133 172 133 224 q 171 121 133 121 q 207 153 196 121 q 228 271 218 186 l 229 278 z "},"O":{"ha":1038,"x_min":111,"x_max":1285,"o":"m 1285 558 q 1179 497 1253 524 q 1062 469 1106 469 q 997 472 1018 469 q 820 129 963 267 q 490 -8 678 -8 q 206 108 301 -8 q 111 413 111 225 q 149 651 111 535 q 252 857 186 767 q 418 1002 318 947 q 627 1057 518 1057 q 806 1008 736 1057 q 876 871 876 958 q 830 752 876 804 q 701 700 783 700 q 625 722 658 700 q 592 790 592 743 q 603 829 592 813 q 625 850 614 846 l 638 856 q 682 800 638 800 q 718 815 703 800 q 735 847 733 829 q 733 876 736 865 q 722 900 731 886 q 640 935 703 935 q 485 857 558 935 q 367 657 411 779 q 324 407 324 535 q 358 217 324 300 q 415 147 378 172 q 506 121 453 121 q 662 194 593 121 q 763 372 731 268 q 796 583 796 476 l 796 600 q 792 629 792 615 q 839 731 792 696 q 915 753 869 753 q 956 749 928 753 q 994 736 983 744 q 949 717 965 735 q 933 668 933 699 q 961 611 933 638 q 1083 574 1000 574 q 1254 642 1165 574 l 1285 558 z "},"P":{"ha":860,"x_min":26,"x_max":897,"o":"m 26 757 q 144 974 26 890 q 460 1057 263 1057 q 667 1030 578 1057 q 803 956 756 1003 q 897 742 897 863 q 801 540 897 621 q 554 458 704 458 q 504 461 538 458 l 517 563 q 701 736 701 563 q 633 872 701 817 q 422 931 563 931 q 200 858 282 931 q 151 768 151 817 q 261 664 151 676 l 244 561 q 88 622 149 565 q 26 757 26 679 m 515 858 l 454 461 q 631 211 631 376 q 567 41 631 90 q 415 -8 504 -8 q 276 38 326 -8 q 226 161 226 83 q 228 189 226 179 l 311 832 q 433 867 383 867 q 515 858 483 867 m 456 118 q 513 142 489 118 q 538 221 538 165 q 443 376 538 319 q 421 181 421 214 q 431 133 421 149 q 456 118 442 118 z "},"Q":{"ha":1013,"x_min":69,"x_max":993,"o":"m 754 590 q 744 651 754 628 q 788 685 758 672 q 845 699 818 699 q 893 690 872 699 q 964 565 964 656 q 799 150 964 325 q 874 107 839 107 q 932 164 932 107 q 928 196 932 179 q 993 105 993 165 q 954 15 993 44 q 861 -14 915 -14 q 707 74 781 -14 q 439 -8 581 -8 q 165 108 260 -8 q 69 413 69 225 q 107 651 69 535 q 210 857 144 767 q 376 1002 276 947 q 585 1057 476 1057 q 765 1008 694 1057 q 835 871 835 958 q 788 752 835 804 q 660 700 742 700 q 583 722 617 700 q 550 790 550 743 q 561 829 550 813 q 583 850 572 846 l 596 856 q 640 800 596 800 q 676 815 661 800 q 693 847 692 829 q 692 876 694 865 q 681 900 689 886 q 599 935 661 935 q 443 857 517 935 q 326 657 369 779 q 282 407 282 535 q 317 217 282 300 q 374 147 336 172 q 464 121 411 121 q 619 196 551 121 q 494 308 546 308 q 458 299 488 308 l 479 372 q 544 396 507 396 q 689 299 613 396 q 754 590 754 432 z "},"R":{"ha":929,"x_min":22,"x_max":1082,"o":"m 1038 299 l 1082 231 q 800 -8 1014 -8 q 716 10 751 -8 q 663 53 681 28 q 633 117 644 78 q 617 271 618 175 q 594 403 617 367 q 507 443 571 439 l 522 561 q 526 561 525 561 q 660 607 607 561 q 717 739 717 658 q 641 875 717 819 q 446 931 565 931 q 208 854 292 931 q 164 754 164 813 q 276 665 164 681 l 257 561 q 107 618 172 565 q 42 754 42 671 q 164 978 42 900 q 474 1057 286 1057 q 686 1028 594 1057 q 894 844 843 975 q 911 770 911 799 q 911 732 911 742 q 855 582 906 656 q 703 481 804 508 q 786 428 764 468 q 810 306 808 388 q 823 135 811 165 q 872 106 835 106 q 1038 299 974 106 m 186 -8 q 68 36 113 -8 q 24 146 24 81 q 272 429 24 315 q 324 828 322 818 q 456 865 382 865 q 525 857 486 865 l 438 264 q 186 -8 396 -8 m 126 163 q 174 118 126 118 q 244 218 229 118 l 257 313 q 126 163 126 236 z "},"S":{"ha":678,"x_min":56,"x_max":726,"o":"m 581 700 q 622 817 622 763 q 592 903 622 871 q 511 935 561 935 q 431 910 461 935 q 400 834 400 886 q 472 647 400 782 q 564 474 544 513 q 617 269 617 368 q 527 69 617 146 q 316 -8 438 -8 q 125 67 194 -8 q 56 244 56 143 q 288 554 56 432 q 193 814 193 740 q 276 988 193 917 q 478 1060 358 1060 q 663 999 599 1060 q 726 843 726 938 q 685 700 726 781 l 581 700 m 217 158 q 308 118 254 118 q 391 149 361 118 q 421 242 421 181 q 378 378 421 297 q 357 419 372 389 q 335 461 342 449 q 179 258 179 381 q 217 158 179 196 z "},"T":{"ha":561,"x_min":0,"x_max":783,"o":"m 361 892 q 275 786 332 828 q 151 744 218 744 q 42 783 85 744 q 0 899 0 822 q 68 1016 0 975 q 228 1057 136 1057 l 779 1057 q 783 1019 783 1038 q 753 932 783 972 q 660 892 722 892 q 656 892 657 892 l 361 892 m 181 892 q 129 856 129 892 q 174 826 129 826 q 223 844 194 826 q 271 892 251 863 l 181 892 m 468 267 q 222 -6 433 -6 q 102 40 147 -6 q 57 156 57 86 q 304 433 57 318 l 353 803 q 485 839 410 839 q 551 832 519 839 l 468 267 m 289 315 q 160 171 160 240 q 208 121 160 121 q 278 228 264 121 l 289 315 z "},"U":{"ha":836,"x_min":0,"x_max":1031,"o":"m 613 1025 q 666 1047 621 1036 q 751 1057 711 1057 q 818 1046 792 1057 q 717 207 717 235 q 734 158 717 179 q 785 136 751 136 q 949 388 876 136 q 950 394 949 390 q 951 400 951 399 q 1031 351 1013 361 q 917 84 985 176 q 742 -8 849 -8 q 597 93 635 -8 l 593 93 q 497 15 550 39 q 365 -8 444 -8 q 165 60 235 -8 q 94 254 94 128 q 99 313 94 281 l 138 638 q 0 867 0 735 q 53 1006 0 954 q 188 1057 106 1057 q 358 876 358 1057 q 354 811 358 847 l 283 268 q 282 239 282 258 q 307 151 282 185 q 383 118 332 118 q 529 310 507 118 l 613 1025 m 136 929 q 89 872 89 929 q 153 758 89 814 l 157 794 q 167 885 165 867 q 136 929 167 929 z "},"V":{"ha":935,"x_min":11,"x_max":1115,"o":"m 972 1057 q 1076 1019 1038 1057 q 1114 922 1114 981 q 1039 750 1114 817 q 840 625 964 683 q 601 0 740 367 l 371 0 q 315 769 324 661 q 295 896 306 876 q 256 915 285 915 q 104 656 182 915 q 11 703 38 688 q 172 1010 82 932 q 318 1063 233 1063 q 436 1013 394 1063 q 492 818 478 963 q 512 519 499 742 q 531 224 525 296 l 539 224 l 751 814 q 829 985 797 943 q 972 1057 882 1057 m 1019 882 q 1008 911 1019 900 q 978 922 997 922 q 947 893 960 922 q 889 751 933 864 q 1019 882 1019 819 z "},"W":{"ha":1149,"x_min":0,"x_max":1165,"o":"m 775 963 l 774 944 q 704 444 721 539 q 676 208 676 289 q 746 126 676 126 q 850 210 804 126 q 919 419 896 294 q 968 871 968 681 q 953 1025 968 960 q 1086 1058 1008 1058 q 1164 967 1164 1058 q 1119 532 1164 824 q 1019 175 1083 289 q 953 82 990 126 q 735 -8 875 -8 q 536 111 596 -8 q 304 -8 460 -8 q 149 49 204 -8 q 94 203 94 107 q 97 240 94 215 l 149 632 q 0 872 0 739 q 58 1007 0 957 q 200 1057 117 1057 q 382 876 382 1057 q 381 869 382 874 q 380 856 381 865 q 377 835 379 847 q 372 800 375 824 q 364 748 368 776 q 353 672 360 719 q 338 570 346 625 q 319 436 331 515 q 300 301 308 357 q 292 221 292 246 q 364 128 292 128 q 488 310 464 128 l 576 1011 q 686 1032 622 1032 q 775 963 775 1032 m 146 946 q 107 926 119 946 q 94 882 94 907 q 164 753 94 819 l 171 808 q 177 900 176 854 q 146 946 178 946 z "},"X":{"ha":1022,"x_min":14,"x_max":1060,"o":"m 115 968 q 314 1075 185 1075 q 423 1039 368 1075 q 511 900 478 1003 l 579 686 l 675 850 q 768 986 731 944 q 904 1060 836 1060 q 1016 1019 972 1060 q 1060 922 1060 979 q 978 753 1060 821 q 692 650 906 690 l 625 543 q 713 277 683 364 q 766 154 742 190 q 820 118 790 118 q 872 128 850 118 q 907 148 894 138 q 935 173 919 158 q 956 190 951 188 l 974 88 q 897 26 956 61 q 778 -8 839 -8 q 612 42 674 -8 q 501 254 550 93 l 472 351 l 389 210 q 283 51 318 88 q 167 -8 228 -8 q 60 31 106 -8 q 14 132 14 69 q 41 240 14 194 q 119 317 68 286 q 360 397 211 368 q 426 500 396 456 l 333 811 q 319 857 328 826 q 304 901 310 888 q 289 932 299 915 q 233 954 271 963 q 133 868 194 946 l 115 968 m 954 878 q 904 915 954 915 q 845 885 871 915 q 797 817 819 856 q 772 775 774 778 q 767 768 769 772 q 763 760 765 764 q 954 878 954 806 m 169 136 q 221 169 196 136 q 296 288 253 214 q 119 174 119 244 q 169 136 119 136 z "},"Y":{"ha":894,"x_min":35,"x_max":1033,"o":"m 435 893 l 433 869 q 394 547 429 804 q 351 225 351 239 q 378 155 351 183 q 448 126 404 126 q 528 156 492 126 q 585 228 565 186 l 663 938 q 715 1030 669 1001 q 810 1058 760 1058 q 879 1044 843 1058 l 786 275 q 1013 375 969 360 l 1033 278 q 774 163 911 228 l 739 -121 q 702 -249 731 -196 q 633 -331 674 -303 q 473 -381 560 -381 q 328 -317 386 -381 q 271 -165 271 -254 q 329 -4 271 -76 q 207 60 256 8 q 158 189 158 113 q 161 219 158 197 l 206 561 q 35 828 35 669 q 142 1031 35 975 q 256 1058 192 1058 q 378 1017 321 1058 q 435 893 435 976 m 204 946 q 149 914 171 946 q 128 838 128 882 q 219 678 128 740 l 246 878 q 218 944 246 935 q 204 946 213 946 m 376 -147 q 399 -218 376 -193 q 454 -243 422 -243 q 511 -220 486 -243 q 542 -156 536 -197 l 567 63 q 376 -147 376 -42 z "},"Z":{"ha":743,"x_min":26,"x_max":819,"o":"m 633 337 q 675 337 633 337 q 769 292 718 338 q 819 176 819 246 q 767 53 819 107 q 607 0 714 0 l 40 0 q 26 74 26 35 q 56 151 26 113 l 538 892 l 490 892 q 383 769 453 818 q 228 720 314 721 q 92 765 143 719 q 42 881 42 811 q 94 1003 42 950 q 254 1057 147 1057 l 807 1057 q 814 1010 814 1033 q 788 931 814 967 l 292 165 l 371 165 q 478 288 408 239 q 633 337 547 336 m 253 892 q 163 849 163 892 q 247 806 163 806 q 393 892 332 806 l 253 892 m 608 165 q 699 208 699 165 q 614 251 699 251 q 468 165 529 251 l 608 165 z "},"[":{"ha":619,"x_min":25,"x_max":592,"o":"m 26 -174 l 26 -171 l 25 -171 l 186 1054 l 186 1056 l 592 1056 l 576 951 l 286 951 l 154 -69 l 447 -69 l 435 -174 l 26 -174 z "},"\\":{"ha":722,"x_min":28,"x_max":694,"o":"m 28 1057 l 143 1057 l 694 -139 l 579 -139 l 28 1057 z "},"]":{"ha":622,"x_min":25,"x_max":592,"o":"m 590 1057 l 590 1054 l 592 1054 l 431 -171 l 431 -172 l 25 -172 l 40 -68 l 331 -68 l 463 953 l 169 953 l 182 1057 l 590 1057 z "},"^":{"ha":833,"x_min":83,"x_max":792,"o":"m 458 732 l 218 288 l 83 288 l 489 1000 l 792 288 l 657 288 l 458 732 z "},"_":{"ha":778,"x_min":0,"x_max":778,"o":"m 14 -1 l 778 -1 l 763 -121 l 0 -121 l 14 -1 z "},"`":{"ha":331,"x_min":14,"x_max":317,"o":"m 140 1024 l 317 764 q 264 713 281 722 l 14 897 q 75 970 38 931 q 140 1024 113 1010 z "},"a":{"ha":761,"x_min":42,"x_max":907,"o":"m 664 -7 q 494 82 536 -7 q 309 -8 422 -8 q 119 68 196 -8 q 42 269 42 144 q 149 560 42 451 q 419 668 256 668 q 428 668 424 668 q 556 644 497 668 q 647 668 593 668 q 724 654 700 668 q 697 452 711 551 q 678 311 683 353 q 665 175 665 217 q 710 119 665 119 q 783 166 744 119 q 851 313 822 213 q 907 232 892 276 q 799 47 867 100 q 664 -7 731 -7 m 440 560 q 299 492 351 560 q 238 292 247 425 q 236 268 236 279 q 269 160 236 200 q 353 119 301 119 q 485 243 440 119 l 518 543 q 440 560 478 560 z "},"b":{"ha":711,"x_min":49,"x_max":699,"o":"m 453 669 q 503 669 453 669 q 625 588 553 669 q 697 396 697 506 q 696 364 697 381 q 574 87 681 182 q 294 -8 467 -8 q 174 17 225 -6 q 97 72 122 39 q 50 181 50 133 q 64 336 50 229 q 147 1046 93 556 q 225 1057 176 1057 q 336 993 336 1057 l 289 624 q 453 669 354 669 m 238 191 q 238 175 238 191 q 262 137 238 158 q 329 115 286 115 q 446 181 400 115 q 501 386 501 260 q 474 494 501 447 q 388 542 446 542 q 267 447 308 542 l 256 364 q 238 191 238 224 z "},"c":{"ha":651,"x_min":50,"x_max":819,"o":"m 481 471 q 400 561 481 561 q 293 493 340 561 q 243 321 243 419 q 287 169 243 222 q 407 115 331 115 q 601 190 499 115 q 765 376 703 265 q 819 300 793 356 q 669 119 779 219 q 528 31 613 67 q 344 -8 436 -8 q 135 76 221 -8 q 50 297 50 161 q 161 565 50 463 q 410 668 272 668 q 579 624 517 668 q 642 507 642 579 q 608 425 642 460 q 460 364 547 364 q 481 471 481 433 z "},"d":{"ha":761,"x_min":42,"x_max":907,"o":"m 576 1001 q 620 1041 586 1025 q 702 1057 654 1057 q 774 1043 750 1057 q 729 703 760 935 q 665 169 665 218 q 707 119 665 119 q 782 165 743 119 q 853 313 821 210 q 907 231 892 275 q 750 17 857 65 q 658 -7 701 -7 q 493 82 535 -7 q 308 -8 421 -8 q 119 68 196 -8 q 42 269 42 144 q 149 560 42 451 q 419 668 256 668 q 428 668 424 668 q 535 651 485 668 l 576 1001 m 440 560 q 299 492 351 560 q 238 292 247 425 q 236 268 236 279 q 269 160 236 200 q 353 119 301 119 q 485 243 440 119 l 521 542 q 440 560 475 560 z "},"e":{"ha":647,"x_min":35,"x_max":807,"o":"m 304 311 q 433 381 390 329 q 475 480 475 432 q 449 545 475 528 q 393 563 424 563 q 278 490 328 563 q 229 316 229 417 q 277 166 229 215 q 396 117 325 117 q 596 189 500 117 q 751 378 692 261 q 807 306 782 349 q 644 101 761 201 q 506 22 586 53 q 342 -8 426 -8 q 122 76 203 -8 q 36 311 36 168 q 144 561 36 454 q 401 668 251 668 q 575 622 508 668 q 643 496 642 575 q 558 322 643 389 q 324 229 472 256 l 304 311 z "},"f":{"ha":560,"x_min":22,"x_max":714,"o":"m 421 -1 q 497 -224 497 -136 q 444 -367 497 -312 q 304 -422 390 -422 q 163 -374 218 -422 q 108 -242 108 -326 q 114 -175 108 -225 l 157 200 q 22 375 75 310 q 101 440 69 440 q 130 425 117 440 q 175 368 143 410 l 228 835 q 272 983 239 926 q 436 1057 317 1057 q 565 1010 521 1057 q 610 882 610 964 q 538 665 610 772 q 372 478 467 558 l 338 143 q 404 117 361 117 q 548 190 490 117 q 649 396 606 263 q 690 367 668 385 q 714 343 711 350 q 603 104 682 189 q 421 -1 524 19 m 486 936 q 472 938 479 938 q 422 889 435 938 q 392 665 410 840 l 386 613 q 483 742 446 674 q 519 867 519 811 q 486 936 519 924 m 300 -211 q 299 -241 299 -218 q 313 -279 299 -264 q 349 -294 326 -294 q 390 -276 372 -294 q 408 -218 408 -257 q 321 -17 408 -144 l 300 -211 z "},"g":{"ha":739,"x_min":42,"x_max":871,"o":"m 419 668 q 560 643 496 668 q 650 669 603 669 q 725 657 697 669 l 675 265 q 831 410 778 344 l 871 325 q 660 147 792 242 l 622 -143 q 537 -344 607 -274 q 356 -414 467 -414 q 231 -372 292 -414 q 167 -229 167 -328 q 282 -8 167 -108 q 113 74 183 -1 q 42 269 42 149 q 149 560 42 451 q 419 668 256 668 m 440 560 q 299 492 351 560 q 238 292 247 425 q 236 268 236 279 q 269 160 236 200 q 353 119 301 119 q 485 242 440 119 l 519 543 q 440 560 476 560 m 274 -208 q 295 -267 274 -246 q 344 -289 317 -289 q 435 -190 422 -289 l 458 18 q 274 -208 274 -92 z "},"h":{"ha":690,"x_min":21,"x_max":850,"o":"m 425 158 l 458 465 q 439 528 458 503 q 376 553 419 553 q 303 519 333 553 q 260 429 274 485 q 231 198 250 350 q 206 0 211 46 l 21 0 q 142 1046 121 851 q 221 1057 171 1057 q 329 993 329 1057 l 329 985 q 279 601 306 767 q 446 668 353 668 q 593 621 539 668 q 647 501 647 574 q 639 429 647 482 q 607 185 607 221 q 650 119 607 119 q 727 167 686 119 q 793 315 768 215 q 850 236 840 265 q 594 -6 778 -6 q 467 47 508 -6 q 425 158 425 100 z "},"i":{"ha":321,"x_min":42,"x_max":481,"o":"m 151 1023 q 167 1039 151 1023 q 229 1056 183 1056 q 308 1023 275 1056 q 340 944 340 990 q 308 867 340 899 q 229 835 275 835 q 151 867 183 835 q 119 944 119 899 q 151 1023 119 990 m 94 615 q 147 653 108 640 q 224 667 186 667 q 292 657 263 667 q 238 235 238 239 q 231 188 231 207 q 233 156 231 169 q 284 119 239 119 q 367 178 329 119 q 425 313 406 238 q 456 279 435 307 q 481 238 476 251 q 386 58 453 126 q 226 -10 319 -10 q 88 36 133 -10 q 43 154 43 82 q 44 186 43 169 l 94 615 z "},"j":{"ha":424,"x_min":-90,"x_max":458,"o":"m 269 1023 q 285 1039 269 1023 q 347 1056 301 1056 q 426 1023 393 1056 q 458 944 458 990 q 426 867 458 899 q 347 835 393 835 q 269 867 301 835 q 238 944 238 899 q 269 1023 238 990 m 76 -425 q -40 -384 11 -425 q -90 -243 -90 -343 q 151 114 -90 -43 q 210 615 161 197 q 340 667 251 667 q 408 657 390 667 l 300 -183 q 233 -365 286 -304 q 76 -425 179 -425 m -1 -229 q 14 -287 -1 -267 q 53 -307 29 -307 q 110 -215 97 -307 l 139 7 q -1 -229 -1 -104 z "},"k":{"ha":689,"x_min":28,"x_max":828,"o":"m 675 500 q 503 279 675 356 q 515 219 507 254 q 599 114 540 117 q 607 114 603 114 q 772 310 718 114 q 828 231 801 283 q 773 104 808 156 q 696 31 738 53 q 557 -8 622 -8 q 343 163 404 -8 q 311 301 319 231 q 436 366 390 321 q 482 463 482 411 q 393 551 482 551 q 310 515 344 551 q 264 426 275 478 q 237 203 256 356 q 213 0 218 51 l 28 0 q 149 1046 128 851 q 228 1057 178 1057 q 336 993 336 1057 l 336 985 q 285 600 308 733 q 476 671 361 671 q 619 626 563 671 q 675 500 675 582 z "},"l":{"ha":425,"x_min":49,"x_max":585,"o":"m 233 -10 q 190 -10 233 -10 q 99 38 147 -10 q 50 169 50 86 q 125 829 50 192 q 229 1036 144 993 q 322 1057 268 1057 q 506 888 506 1057 q 504 858 506 874 q 271 479 490 672 q 256 347 264 411 q 239 189 239 204 q 301 117 239 117 q 428 195 369 117 q 519 396 488 274 q 554 373 532 392 q 585 340 576 354 q 485 119 563 225 q 386 31 446 65 q 233 -10 318 -10 m 286 618 q 414 869 414 758 q 364 936 414 936 q 322 894 332 933 q 302 768 311 856 q 290 660 293 681 l 286 618 z "},"m":{"ha":1117,"x_min":49,"x_max":1263,"o":"m 438 0 l 490 461 q 472 526 490 500 q 406 551 453 551 q 328 506 358 551 q 289 411 297 461 q 235 0 240 65 l 49 0 l 125 653 q 214 668 183 668 q 310 610 301 668 q 458 668 378 668 q 664 572 619 668 q 858 669 732 669 q 1006 622 951 669 q 1060 501 1060 574 q 1051 428 1060 481 q 1019 183 1019 219 q 1063 118 1019 118 q 1140 166 1099 118 q 1206 314 1181 214 q 1263 235 1253 264 q 1007 -7 1190 -7 q 879 46 921 -7 q 838 157 838 99 l 871 464 q 851 526 871 501 q 790 551 832 551 q 715 519 747 551 q 671 438 683 488 q 617 0 629 85 l 438 0 z "},"n":{"ha":721,"x_min":35,"x_max":867,"o":"m 442 156 l 475 465 q 456 528 475 503 q 391 553 436 553 q 315 513 346 553 q 275 414 283 474 q 222 0 225 33 l 35 0 l 111 654 q 200 669 169 669 q 297 601 293 669 q 460 668 365 668 q 610 621 556 668 q 664 501 664 574 q 656 428 664 482 q 624 182 624 217 q 667 118 624 118 q 810 315 761 118 q 867 236 857 265 q 611 -8 793 -8 q 483 44 525 -8 q 442 156 442 97 z "},"o":{"ha":722,"x_min":28,"x_max":708,"o":"m 410 668 q 623 586 538 668 q 708 386 708 504 q 603 99 708 207 q 350 -8 499 -8 q 115 76 201 -8 q 28 286 28 161 q 135 564 28 461 q 410 668 243 668 m 383 556 q 350 556 383 556 q 272 481 317 556 q 224 292 228 406 q 256 158 224 211 q 356 106 289 106 q 467 179 422 106 q 513 347 513 253 q 481 497 513 442 q 383 556 449 556 z "},"p":{"ha":735,"x_min":0,"x_max":715,"o":"m 199 669 q 304 624 289 669 q 469 669 369 669 q 642 588 569 669 q 714 396 714 506 q 713 364 714 381 q 590 87 697 182 q 311 -8 483 -8 q 226 1 272 -8 l 182 -381 l 0 -381 q 119 658 89 385 q 199 669 149 669 m 518 386 q 490 494 518 447 q 404 542 463 542 q 283 439 325 542 q 251 200 256 233 q 278 138 250 158 q 346 117 306 117 q 463 181 417 117 q 518 386 518 260 z "},"q":{"ha":796,"x_min":28,"x_max":935,"o":"m 435 38 q 276 -8 371 -8 q 105 68 182 -8 q 28 269 28 144 q 135 560 28 451 q 406 668 242 668 q 414 668 410 668 q 542 644 482 668 q 633 668 586 668 q 703 654 679 668 q 643 175 649 221 l 636 118 q 690 119 672 118 q 800 174 747 124 q 882 326 853 225 q 935 246 926 271 q 834 72 900 132 q 693 -3 768 11 q 788 -214 788 -114 q 788 -222 788 -218 q 769 -319 788 -276 q 718 -382 750 -361 q 599 -422 657 -422 q 444 -358 496 -422 q 406 -226 406 -307 q 408 -181 406 -204 l 435 38 m 426 560 q 285 492 338 560 q 224 292 233 425 q 222 268 222 279 q 255 160 222 200 q 339 119 288 119 q 461 218 417 119 l 499 546 q 426 560 461 560 m 615 -32 q 593 -235 593 -208 q 610 -278 593 -262 q 649 -294 626 -294 q 690 -276 672 -294 q 708 -221 708 -257 q 615 -32 708 -125 z "},"r":{"ha":572,"x_min":76,"x_max":586,"o":"m 456 486 q 399 547 456 547 q 310 475 343 547 q 460 210 460 357 q 400 47 460 103 q 250 -8 340 -8 q 118 48 160 -8 q 76 190 76 104 q 78 229 76 217 l 126 653 q 228 668 176 668 q 313 606 313 668 l 313 603 q 454 668 368 668 q 551 640 517 668 q 586 564 586 611 q 551 487 586 517 q 458 457 515 457 q 453 457 456 457 q 456 486 456 472 m 369 217 q 286 378 369 297 q 261 176 261 178 q 308 118 261 118 q 369 217 369 118 z "},"s":{"ha":715,"x_min":-64,"x_max":735,"o":"m 625 425 q 735 235 735 344 q 649 58 735 125 q 432 -8 563 -8 q 291 34 347 -8 q 235 139 235 76 q 276 238 235 201 q 381 283 318 275 q 351 203 351 242 q 378 142 351 165 q 444 118 404 118 q 511 148 485 118 q 538 217 538 178 q 478 331 538 281 q 400 385 442 360 q 356 413 358 411 q 344 419 350 417 q 272 340 319 390 q 197 258 225 289 q 110 117 119 174 q 107 74 107 106 q 126 10 107 43 q 171 -40 144 -24 q 223 -67 197 -57 q 267 -82 249 -78 q 286 -87 286 -86 q 256 -110 286 -97 q 137 -131 199 -131 q 17 -86 75 -131 q -62 76 -62 -25 q -31 200 -62 139 q 236 497 26 308 q 185 607 185 549 q 228 706 185 665 q 332 746 272 746 q 426 703 386 746 q 453 629 453 674 q 424 529 453 585 q 625 425 572 463 m 324 582 q 357 632 357 617 q 326 669 357 667 q 292 631 292 669 q 324 582 292 607 z "},"t":{"ha":478,"x_min":0,"x_max":526,"o":"m 360 967 q 322 668 360 958 l 526 668 l 526 561 l 308 561 l 304 526 q 467 229 467 390 q 402 47 467 103 q 247 -8 338 -8 q 115 40 157 -8 q 74 156 74 88 q 76 189 74 171 l 119 558 l 114 561 l 1 561 q 0 606 0 575 q 13 668 0 638 l 132 668 l 176 1046 q 254 1057 206 1057 q 360 967 360 1057 m 374 231 q 290 419 374 326 q 265 181 265 213 q 306 118 265 118 q 354 145 335 118 q 374 231 374 172 z "},"u":{"ha":704,"x_min":42,"x_max":850,"o":"m 665 654 q 608 175 608 204 q 649 119 608 119 q 727 169 685 119 q 794 317 769 218 q 850 239 840 267 q 749 49 818 104 q 606 -7 679 -7 q 443 86 485 -7 q 250 -7 371 -7 q 96 43 150 -7 q 42 174 42 93 q 49 242 42 193 q 97 653 81 500 q 176 668 140 668 q 231 665 213 668 q 265 644 249 663 q 282 593 282 626 l 236 239 q 233 208 233 222 q 308 126 233 126 q 424 194 378 126 q 426 243 424 210 l 472 613 q 514 652 482 636 q 594 668 546 668 q 665 654 642 668 z "},"v":{"ha":631,"x_min":49,"x_max":665,"o":"m 569 249 q 547 192 569 249 q 444 65 525 136 q 258 -7 363 -7 q 102 62 154 -7 q 50 219 50 131 q 51 256 50 238 l 99 651 q 193 668 143 668 q 285 600 285 668 q 262 415 285 597 q 239 203 239 232 q 315 124 239 124 q 425 197 381 124 q 507 499 503 331 l 494 499 q 406 525 436 499 q 371 599 371 556 q 397 668 371 642 q 474 696 429 696 q 606 586 579 696 q 665 597 647 592 l 665 518 l 614 510 l 614 486 q 569 249 613 361 m 450 599 q 490 575 450 575 q 499 575 494 575 q 469 613 489 613 q 450 599 450 613 z "},"w":{"ha":999,"x_min":54,"x_max":1158,"o":"m 607 221 q 692 121 607 121 q 696 121 694 121 q 765 163 735 121 q 811 267 796 204 q 844 499 844 394 l 832 499 q 742 525 774 499 q 708 599 708 556 q 735 668 708 642 q 814 697 767 697 q 953 592 917 697 q 1158 657 1050 615 l 1158 578 q 967 518 1056 539 q 968 486 968 507 q 833 69 963 199 q 635 -7 757 -7 q 454 96 514 -7 q 246 -8 386 -8 q 109 51 163 -8 q 56 190 56 110 q 57 224 56 204 q 106 651 86 465 q 193 668 156 668 q 292 600 292 668 q 271 418 292 574 q 244 198 244 222 q 263 150 244 174 q 317 126 282 126 q 381 158 353 126 q 421 236 408 190 l 469 651 q 564 668 514 668 q 654 600 654 668 q 635 438 654 575 q 607 221 607 243 m 788 599 q 828 575 788 575 q 836 575 832 575 q 807 613 826 613 q 788 599 788 613 z "},"x":{"ha":708,"x_min":14,"x_max":733,"o":"m 733 171 q 663 38 711 85 q 548 -8 614 -8 q 447 18 482 -8 q 381 107 411 44 l 336 193 l 268 94 q 129 -1 201 -1 q 44 30 74 -1 q 14 106 14 61 q 73 223 14 181 q 199 265 132 265 q 239 261 218 265 l 272 311 q 163 507 172 492 q 131 531 146 531 q 107 520 117 531 q 97 492 97 510 q 103 451 97 474 l 68 442 q 47 490 56 458 q 39 539 39 521 q 82 645 39 607 q 194 683 125 683 q 326 592 279 683 l 383 482 l 460 601 q 521 670 493 653 q 592 688 549 688 q 668 656 636 688 q 700 582 700 625 q 647 468 700 508 q 531 428 594 428 q 499 431 518 428 l 449 357 q 553 156 543 174 q 606 118 574 118 q 674 194 649 118 l 679 211 q 686 239 681 215 l 733 171 m 614 581 q 588 566 600 581 q 533 483 576 551 q 604 502 571 483 q 639 551 638 521 q 614 581 640 581 m 193 210 q 118 190 154 210 q 82 142 82 171 q 107 113 82 113 q 204 210 136 113 l 193 210 z "},"y":{"ha":675,"x_min":28,"x_max":779,"o":"m 285 -412 q 149 -365 206 -412 q 92 -225 92 -317 q 206 -6 92 -112 q 76 47 125 1 q 28 176 28 93 q 38 293 28 215 q 58 461 47 371 q 82 653 69 551 q 161 668 125 668 q 215 665 197 668 q 250 644 233 663 q 267 593 267 626 l 221 239 q 218 208 218 217 q 293 126 218 126 q 404 190 361 126 q 425 374 408 222 q 453 611 442 526 q 505 653 465 638 q 569 668 544 668 q 650 657 614 668 l 585 144 q 779 -79 747 115 q 726 -162 774 -106 q 574 49 699 11 l 551 -125 q 472 -331 536 -250 q 285 -412 408 -412 m 200 -199 q 222 -267 200 -244 q 281 -289 244 -289 q 338 -258 318 -289 q 368 -136 357 -228 l 386 17 q 200 -199 204 -78 z "},"z":{"ha":607,"x_min":28,"x_max":596,"o":"m 432 -12 l 46 -4 q 28 45 28 -4 q 49 122 28 94 q 164 285 69 178 q 278 410 194 319 q 388 533 361 500 l 314 538 q 253 456 293 488 q 165 425 214 425 q 75 458 110 425 q 40 549 40 490 q 81 642 40 607 q 192 676 121 676 l 578 668 q 596 621 596 668 q 578 546 596 572 q 530 481 561 515 q 439 391 499 447 q 356 311 379 335 q 217 132 263 218 l 310 126 q 370 208 331 176 q 458 239 410 239 q 549 206 514 239 q 583 115 583 174 q 543 22 583 57 q 432 -12 503 -12 m 181 547 q 132 515 132 547 q 168 483 132 483 q 254 542 222 483 l 197 546 q 181 547 189 547 m 443 117 q 492 149 492 117 q 456 181 492 181 q 369 122 401 181 l 426 118 q 443 117 435 117 z "},"{":{"ha":526,"x_min":28,"x_max":526,"o":"m 142 497 q 188 614 175 497 q 221 930 213 869 q 273 1024 229 990 q 379 1058 317 1058 q 526 1007 464 1058 l 511 946 q 479 957 494 957 q 408 936 424 957 q 389 874 393 915 q 378 781 385 833 q 363 653 372 728 q 347 529 353 578 q 256 411 336 432 q 315 314 315 386 l 269 -64 q 269 -85 269 -68 q 324 -131 269 -126 q 381 -119 358 -131 l 381 -181 q 231 -231 297 -231 q 127 -196 165 -231 q 91 -106 89 -161 q 114 101 93 -51 q 138 282 138 267 q 115 329 138 329 q 101 328 106 329 q 84 315 96 326 q 60 276 72 303 l 28 292 q 80 367 44 333 q 160 414 115 401 q 64 535 81 443 l 99 550 q 128 499 111 503 q 142 497 132 497 z "},"|":{"ha":351,"x_min":35,"x_max":290,"o":"m 171 1057 l 290 1057 l 149 -139 l 35 -139 l 171 1057 z "},"}":{"ha":528,"x_min":0,"x_max":493,"o":"m 385 336 q 339 219 351 336 q 303 -101 313 -46 q 252 -191 294 -157 q 147 -225 210 -225 q 0 -174 63 -225 l 15 -112 q 47 -124 32 -124 q 119 -103 103 -124 q 141 -8 135 -82 q 176 304 147 67 q 269 421 189 394 q 206 519 206 444 l 251 897 q 251 918 251 901 q 197 964 251 960 q 140 953 163 964 l 140 1014 q 290 1064 224 1064 q 394 1029 356 1064 q 430 940 432 994 q 406 732 428 885 q 383 551 383 567 q 406 504 383 504 q 420 506 415 504 q 437 519 425 507 q 461 557 449 531 l 493 542 q 442 467 476 500 q 365 419 408 433 q 430 374 404 407 q 463 299 456 340 l 428 283 q 400 335 415 331 q 385 336 394 336 z "},"~":{"ha":590,"x_min":-36,"x_max":644,"o":"m 138 682 q 181 676 150 682 q 324 619 211 671 q 472 568 436 568 q 583 667 544 568 l 644 667 q 575 489 631 546 q 450 432 519 432 q 269 486 381 432 q 122 540 156 540 q 59 523 89 540 q 25 463 29 506 l -36 463 q 24 627 -31 572 q 138 682 78 682 z "},"ย":{"ha":306,"x_min":0,"x_max":0,"o":""},"ยก":{"ha":367,"x_min":-69,"x_max":326,"o":"m 294 503 q 277 486 294 503 q 214 469 261 469 q 133 503 167 469 q 100 583 100 536 q 133 663 100 631 q 214 696 167 696 q 294 663 261 696 q 326 583 326 631 q 294 503 326 536 m 164 -485 q 67 -499 136 -499 q -69 -435 -69 -499 q -68 -422 -69 -429 l 104 306 l 253 306 l 164 -485 z "},"ยข":{"ha":774,"x_min":28,"x_max":746,"o":"m 28 297 q 122 543 28 444 q 342 664 215 642 l 386 1057 l 492 1057 l 447 665 q 583 613 533 656 q 632 515 632 569 q 597 425 632 460 q 447 364 536 364 q 461 463 461 413 q 433 539 461 513 l 388 133 l 401 132 q 410 132 406 132 q 561 178 482 132 q 690 319 640 225 l 746 258 q 496 18 668 79 q 371 -7 438 -3 l 328 -394 l 222 -394 l 267 0 q 97 105 167 24 q 28 297 28 186 m 219 331 q 286 171 219 221 l 329 550 q 251 471 282 529 q 219 331 219 413 z "},"ยฃ":{"ha":846,"x_min":24,"x_max":818,"o":"m 567 124 q 606 118 582 118 q 651 128 629 118 q 692 172 674 139 q 719 229 710 204 q 749 318 728 254 q 818 236 794 275 q 597 -8 772 -8 q 383 90 503 -8 q 183 -8 318 -8 q 73 32 122 -8 q 24 147 24 72 q 76 272 24 222 q 207 321 128 321 q 254 317 231 321 q 278 504 268 417 l 114 504 l 131 615 l 292 615 l 318 825 q 593 1057 347 1057 q 745 999 689 1057 q 801 847 801 942 q 797 789 801 818 l 693 789 q 696 829 696 817 q 675 906 696 878 q 603 936 650 936 q 532 899 556 936 q 501 796 508 863 l 479 615 l 732 615 l 714 504 l 465 504 l 433 239 l 432 224 q 567 124 532 136 m 174 115 q 236 199 222 115 q 186 208 207 208 q 149 193 165 208 q 133 156 133 178 q 146 125 133 135 q 174 115 158 115 z "},"ยค":{"ha":942,"x_min":125,"x_max":858,"o":"m 704 635 q 751 483 751 568 q 706 331 751 399 l 857 178 l 783 103 l 631 260 q 493 222 569 222 q 354 258 417 222 l 200 106 l 125 179 l 279 329 q 235 480 235 394 q 283 636 235 565 l 126 789 l 201 863 l 361 706 q 493 739 419 739 q 628 704 567 739 l 785 865 l 858 790 l 704 635 m 492 638 q 459 638 492 638 q 381 592 426 638 q 336 480 336 546 q 381 369 336 414 q 492 324 426 324 q 604 369 558 324 q 650 480 650 414 q 604 592 650 546 q 492 638 558 638 z "},"ยฅ":{"ha":853,"x_min":36,"x_max":717,"o":"m 247 1051 q 339 983 339 1051 q 316 798 339 981 q 293 586 293 615 q 369 507 293 507 q 480 576 436 507 q 542 722 524 644 q 561 869 561 799 q 517 953 561 940 q 516 964 518 954 q 519 990 514 974 q 531 1020 524 1006 q 556 1046 538 1035 q 601 1057 575 1057 q 697 999 667 1057 q 717 919 717 960 q 711 847 717 879 q 639 615 690 724 q 511 443 588 506 l 656 443 l 640 324 l 456 324 l 444 249 l 631 249 l 615 129 l 429 129 l 411 0 l 222 0 l 236 129 l 36 129 l 50 249 l 250 249 l 258 324 l 58 324 l 72 443 l 157 443 q 104 600 104 503 q 106 639 104 618 l 153 1035 q 247 1051 197 1051 z "},"ยฆ":{"ha":306,"x_min":26,"x_max":276,"o":"m 161 1057 l 276 1057 l 219 549 l 104 549 l 161 1057 m 88 399 l 203 399 l 142 -137 l 26 -137 l 88 399 z "},"ยง":{"ha":863,"x_min":44,"x_max":819,"o":"m 558 -3 q 613 -186 613 -99 q 531 -387 613 -310 q 322 -465 450 -465 q 122 -400 194 -465 q 46 -215 46 -329 q 63 -114 46 -167 l 182 -114 q 168 -196 167 -144 q 203 -290 169 -247 q 290 -332 236 -332 q 377 -306 344 -332 q 410 -233 410 -279 q 387 -152 410 -187 q 249 29 364 -117 q 103 340 107 204 q 163 516 101 442 q 324 614 224 590 q 289 672 299 654 q 253 814 253 738 q 338 990 253 921 q 544 1058 422 1058 q 742 1001 667 1058 q 818 833 818 942 q 788 714 818 779 l 667 714 q 676 734 668 718 q 689 758 685 750 q 699 832 700 783 q 660 910 699 881 q 571 939 621 939 q 488 908 521 939 q 454 833 454 878 q 480 751 454 789 q 539 675 506 713 q 599 608 572 638 q 631 572 625 579 q 660 538 638 564 q 690 500 683 511 q 715 465 697 489 q 740 426 733 440 q 760 390 747 413 q 778 350 772 367 q 792 257 792 296 q 724 84 792 153 q 558 -3 657 15 m 397 513 q 330 476 356 506 q 304 401 304 447 q 328 313 304 354 q 442 172 360 257 q 476 131 465 146 q 553 158 521 132 q 585 223 585 185 q 564 300 585 261 q 522 365 543 339 q 458 441 501 390 q 397 513 414 492 z "},"ยจ":{"ha":833,"x_min":176,"x_max":710,"o":"m 176 839 q 176 860 176 839 q 205 910 176 881 q 275 940 233 940 q 346 910 317 940 q 375 839 375 881 q 346 768 375 797 q 275 739 317 739 q 205 768 233 739 q 176 839 176 797 m 538 910 q 553 925 538 910 q 610 940 568 940 q 681 910 651 940 q 710 839 710 881 q 681 768 710 797 q 610 739 653 739 q 538 768 568 739 q 508 839 508 797 q 538 910 508 881 z "},"ยฉ":{"ha":986,"x_min":42,"x_max":944,"o":"m 42 479 q 42 574 42 479 q 167 800 42 668 q 492 932 293 932 q 818 801 692 932 q 944 481 944 669 q 818 161 944 293 q 492 29 692 29 q 167 160 292 29 q 42 479 42 290 m 746 733 q 694 785 746 733 q 492 838 642 838 q 239 733 342 838 q 136 479 136 629 q 239 226 136 329 q 492 124 342 124 q 746 226 642 124 q 850 479 850 329 q 746 733 850 629 m 524 331 q 732 428 638 331 l 763 358 q 661 261 739 310 q 481 210 582 210 q 295 279 379 210 q 211 474 211 349 q 294 682 211 600 q 487 764 376 764 q 658 720 597 764 q 719 610 719 676 q 661 515 719 539 q 561 493 606 493 q 581 560 581 532 q 489 664 581 664 q 395 618 432 664 q 358 493 358 572 q 408 372 358 414 q 524 331 458 331 z "},"ยช":{"ha":578,"x_min":97,"x_max":501,"o":"m 389 656 q 308 697 328 656 q 222 656 275 656 q 133 692 169 656 q 97 785 97 728 q 147 922 97 871 q 275 972 197 972 q 338 961 310 972 q 380 972 356 972 q 418 965 404 972 q 390 735 390 754 q 408 715 390 715 q 475 807 451 715 q 501 767 496 789 q 451 681 483 706 q 389 656 419 656 m 283 921 q 190 781 190 921 q 205 734 190 753 q 243 715 219 715 q 307 779 286 715 l 321 913 q 283 921 299 921 z "},"ยซ":{"ha":833,"x_min":142,"x_max":694,"o":"m 407 -1 l 142 331 l 435 671 l 526 671 l 326 331 l 500 -1 l 407 -1 m 575 -1 l 410 331 l 603 671 l 694 671 l 560 331 l 668 -1 l 575 -1 z "},"ยฌ":{"ha":833,"x_min":47,"x_max":814,"o":"m 654 228 l 685 479 l 47 479 l 64 599 l 814 599 l 769 228 l 654 228 z "},"ยญ":{"ha":636,"x_min":46,"x_max":589,"o":"m 589 579 l 576 460 l 46 460 l 58 579 l 589 579 z "},"ยฎ":{"ha":986,"x_min":42,"x_max":944,"o":"m 42 479 q 42 574 42 479 q 167 800 42 668 q 492 932 293 932 q 818 801 692 932 q 944 481 944 669 q 818 161 944 293 q 492 29 692 29 q 167 160 292 29 q 42 479 42 290 m 239 226 q 290 175 239 226 q 492 124 342 124 q 746 226 642 124 q 850 479 850 329 q 746 733 850 629 q 492 838 642 838 q 239 733 342 838 q 136 479 136 629 q 239 226 136 329 m 635 218 q 609 218 635 218 q 556 256 582 218 q 521 366 531 293 q 504 457 511 439 l 472 449 l 464 376 q 414 253 453 289 q 330 218 375 218 q 261 249 285 218 q 238 313 238 279 q 367 461 238 400 q 386 632 385 619 q 444 649 411 649 q 497 643 478 649 l 479 501 l 482 503 q 593 615 593 539 q 559 678 593 654 q 460 701 525 701 q 354 676 396 701 q 313 610 313 650 q 329 578 313 592 q 361 563 346 564 l 356 524 q 353 524 354 524 q 240 615 240 524 q 307 729 240 682 q 477 779 378 779 q 649 736 576 779 q 721 610 721 693 q 693 532 721 569 q 618 475 665 494 q 637 403 631 450 q 651 326 643 356 q 682 297 660 297 q 756 393 724 297 l 790 379 q 731 258 771 296 q 635 218 689 218 m 358 397 q 292 330 292 356 q 315 304 292 304 q 354 357 347 304 l 358 397 z "},"ยฏ":{"ha":833,"x_min":167,"x_max":750,"o":"m 167 972 l 750 972 l 750 858 l 167 858 l 167 972 z "},"ยฐ":{"ha":833,"x_min":190,"x_max":581,"o":"m 192 864 q 264 1001 201 944 q 406 1057 326 1057 q 533 1006 486 1057 q 579 889 579 954 q 578 864 579 876 q 509 728 571 785 q 367 671 447 671 q 239 724 288 671 q 190 846 190 778 q 192 864 190 854 m 492 878 q 467 941 492 913 q 398 969 442 969 q 319 939 354 969 q 279 860 279 903 q 306 788 279 817 q 376 758 332 758 q 453 790 419 758 q 490 864 488 821 q 492 878 492 871 z "},"ยฑ":{"ha":686,"x_min":-19,"x_max":678,"o":"m 399 544 l 365 249 l 238 249 l 272 544 l 8 544 l 22 664 l 286 664 l 319 956 l 446 956 l 413 664 l 678 664 l 664 544 l 399 544 m 636 0 l -19 0 l -6 119 l 650 119 l 636 0 z "},"ยฒ":{"ha":496,"x_min":35,"x_max":440,"o":"m 79 814 l 79 833 q 132 938 81 904 q 256 972 183 972 q 379 934 328 972 q 431 822 431 896 q 389 711 431 764 q 342 657 361 676 l 319 635 q 208 543 268 583 q 324 526 294 526 q 369 544 354 526 q 394 603 383 563 l 438 603 q 440 564 440 575 q 319 431 431 431 q 219 443 281 431 q 127 456 158 456 q 63 431 96 456 l 35 496 q 100 556 46 511 q 167 613 154 601 q 202 645 181 625 q 233 674 224 665 q 260 702 242 682 q 286 738 278 722 q 313 827 313 788 q 292 886 313 867 q 244 907 272 906 q 174 840 176 903 q 176 814 174 828 l 79 814 z "},"ยณ":{"ha":554,"x_min":61,"x_max":482,"o":"m 347 586 q 233 667 347 667 l 199 667 l 206 732 q 273 735 240 732 q 325 758 306 739 q 350 821 344 776 q 335 880 351 856 q 289 904 319 904 q 217 839 225 904 q 221 797 214 824 l 110 797 q 107 833 107 817 q 143 914 107 881 q 292 972 206 972 q 424 933 379 972 q 468 833 468 894 q 394 710 468 756 q 459 666 436 694 q 482 603 482 638 q 411 468 482 514 q 276 431 354 431 q 61 543 131 431 l 174 607 q 201 527 175 554 q 264 500 226 500 q 324 524 301 500 q 347 586 347 549 z "},"ยด":{"ha":331,"x_min":72,"x_max":375,"o":"m 72 764 l 249 1024 q 314 970 276 1010 q 375 897 351 931 l 125 713 q 72 764 108 722 z "},"ยถ":{"ha":833,"x_min":29,"x_max":774,"o":"m 408 418 l 335 413 q 122 478 215 413 q 29 664 29 543 q 117 869 29 781 q 460 979 217 971 l 465 1028 q 601 1058 513 1058 q 640 1056 621 1058 l 631 963 l 663 954 l 674 1057 l 749 1057 l 735 931 q 774 911 749 925 l 750 817 l 724 828 l 632 0 l 557 0 l 651 850 l 618 857 l 554 272 q 317 -1 525 -1 q 189 42 238 -1 q 140 154 140 86 q 184 265 140 222 q 285 307 228 307 q 363 300 342 307 l 357 238 q 310 240 344 240 q 254 220 275 240 q 233 169 233 200 q 253 120 233 139 q 297 101 272 101 q 392 240 378 101 l 408 418 m 264 679 q 308 566 264 615 q 417 514 351 517 l 449 864 q 337 824 381 857 q 278 756 293 792 q 264 679 264 719 z "},"ยท":{"ha":833,"x_min":307,"x_max":515,"o":"m 322 525 l 497 525 q 513 524 510 525 q 515 515 515 522 l 515 339 q 513 329 515 331 q 497 328 510 328 l 322 328 q 310 331 313 328 q 307 344 307 333 l 307 508 q 309 522 307 519 q 322 525 311 525 z "},"ยธ":{"ha":833,"x_min":265,"x_max":568,"o":"m 435 -44 q 527 -78 486 -44 q 568 -175 568 -111 q 520 -279 568 -239 q 411 -319 472 -319 q 265 -253 313 -319 l 290 -200 q 334 -237 303 -219 q 396 -256 365 -256 q 447 -233 426 -256 q 467 -174 467 -210 q 440 -118 467 -139 q 374 -97 413 -97 q 328 -99 335 -97 l 385 51 l 463 51 l 426 -46 l 435 -44 z "},"ยน":{"ha":371,"x_min":3,"x_max":340,"o":"m 340 507 q 332 431 332 449 l 3 431 l 13 507 l 121 507 l 157 833 l 40 822 l 50 888 q 192 972 164 917 l 281 972 l 228 507 l 340 507 z "},"ยบ":{"ha":392,"x_min":28,"x_max":378,"o":"m 378 828 q 324 681 378 736 q 194 625 269 625 q 73 669 118 625 q 28 776 28 713 q 83 918 28 865 q 213 972 138 971 q 333 930 289 972 q 378 828 378 888 m 210 915 q 193 915 210 915 q 153 876 176 915 q 129 788 131 838 q 145 710 128 738 q 197 682 163 682 q 254 721 231 682 q 278 808 278 760 q 261 885 278 856 q 210 915 244 915 z "},"ยป":{"ha":667,"x_min":107,"x_max":658,"o":"m 107 0 l 239 332 l 129 672 l 221 672 l 389 332 l 199 0 l 107 0 m 275 0 l 474 332 l 297 672 l 389 672 l 658 332 l 367 0 l 275 0 z "},"ยผ":{"ha":1192,"x_min":46,"x_max":1110,"o":"m 990 1057 l 215 -139 l 100 -139 l 875 1057 l 990 1057 m 403 507 q 394 431 394 449 l 46 431 l 56 507 l 169 507 l 206 833 l 83 822 l 93 888 q 254 972 229 922 l 343 972 l 290 507 l 403 507 m 983 539 q 1050 494 1050 539 q 1010 265 1050 472 q 1108 143 1108 242 q 1061 17 1108 56 q 979 -11 1025 -11 q 899 16 928 -11 q 871 86 871 43 q 874 107 871 93 l 883 181 l 688 181 l 688 183 q 668 222 681 193 q 656 256 656 251 q 657 263 656 261 q 776 507 776 419 q 735 556 776 539 q 835 589 768 589 q 885 572 868 589 q 903 539 903 556 q 902 510 903 522 q 893 476 901 499 q 869 424 885 454 q 841 372 853 393 q 808 316 829 351 q 783 272 788 281 l 897 272 l 939 533 q 983 539 967 539 m 1004 68 q 1046 133 1046 68 q 1035 169 1046 156 q 993 185 1024 182 l 982 101 q 1004 68 982 68 z "},"ยฝ":{"ha":1111,"x_min":69,"x_max":1068,"o":"m 1008 1057 l 233 -139 l 118 -139 l 893 1057 l 1008 1057 m 426 507 q 418 431 418 449 l 69 431 l 79 507 l 193 507 l 229 833 l 107 822 l 117 888 q 278 972 253 922 l 367 972 l 314 507 l 426 507 m 1064 158 l 1068 101 q 1035 10 1068 47 q 954 -28 1001 -28 q 846 -8 907 -28 q 753 11 785 11 q 689 -14 722 11 l 661 51 q 719 117 665 71 q 853 243 821 203 q 897 313 886 283 q 913 388 913 351 q 894 442 913 424 q 847 463 875 461 q 786 396 789 460 q 789 342 786 356 l 678 342 l 678 389 q 737 493 679 458 q 867 528 794 528 q 992 490 940 528 q 1043 372 1043 451 q 946 190 1043 292 q 835 99 894 139 q 951 82 921 82 q 995 100 981 82 q 1021 158 1010 118 l 1064 158 z "},"ยพ":{"ha":1181,"x_min":53,"x_max":1106,"o":"m 126 -139 l 901 1057 l 1017 1057 l 242 -139 l 126 -139 m 339 586 q 225 667 339 667 l 190 667 l 197 732 q 265 735 232 732 q 317 758 297 739 q 342 821 336 776 q 327 880 343 856 q 281 904 311 904 q 208 839 217 904 q 213 797 206 824 l 101 797 q 99 833 99 817 q 135 914 99 881 q 284 972 197 972 q 415 933 371 972 q 460 833 460 894 q 386 710 460 756 q 451 666 428 694 q 474 603 474 638 q 403 468 474 514 q 268 431 346 431 q 53 543 122 431 l 165 607 q 192 527 167 554 q 256 500 218 500 q 316 524 293 500 q 339 586 339 549 m 731 547 q 831 581 764 581 q 881 564 864 581 q 899 531 899 547 q 898 502 899 514 q 889 468 897 490 q 865 415 881 446 q 837 364 849 385 q 804 308 825 343 q 779 264 783 272 l 893 264 l 935 525 q 988 531 963 531 q 1046 483 1046 531 q 1006 257 1046 464 q 1104 135 1104 233 q 1057 8 1104 47 q 975 -19 1021 -19 q 895 8 924 -19 q 867 78 867 35 q 869 99 867 85 l 879 172 l 683 172 l 683 175 q 664 214 676 185 q 651 248 651 243 q 653 254 651 253 q 772 499 772 411 q 731 547 772 531 m 1000 60 q 1042 125 1042 60 q 1031 160 1042 147 q 989 176 1019 174 q 978 93 989 176 q 1000 60 978 60 z "},"ยฟ":{"ha":824,"x_min":110,"x_max":714,"o":"m 517 756 q 533 773 517 756 q 597 789 550 789 q 678 756 644 789 q 711 676 711 724 q 678 595 711 629 q 597 561 644 561 q 517 595 550 561 q 483 676 483 629 q 517 756 483 724 m 649 432 q 667 386 661 418 q 672 343 672 354 q 631 224 672 276 q 540 137 590 172 q 439 66 489 101 q 353 -21 389 31 q 315 -133 315 -76 q 346 -228 315 -190 q 439 -265 376 -265 q 540 -219 501 -265 q 581 -108 581 -172 q 554 -6 581 -43 l 689 -6 q 714 -122 714 -65 q 620 -308 710 -233 q 401 -382 531 -382 q 191 -309 271 -382 q 111 -126 111 -236 q 111 -119 111 -124 q 160 49 115 -18 q 282 175 204 115 q 358 230 308 196 q 435 283 408 264 q 485 334 461 303 q 515 397 510 365 l 515 406 q 514 432 515 428 l 649 432 z "},"ร":{"ha":992,"x_min":47,"x_max":1161,"o":"m 651 1413 l 828 1153 q 775 1101 792 1111 l 525 1286 q 586 1359 549 1319 q 651 1413 624 1399 m 844 -3 q 727 48 767 -3 q 674 238 688 99 q 657 425 665 310 q 461 364 560 396 l 414 233 q 394 180 400 196 q 374 132 389 164 q 349 85 360 100 q 320 49 339 71 q 282 17 301 26 q 175 -8 232 -8 q 83 33 118 -8 q 47 133 47 74 q 50 168 47 150 q 324 411 68 301 q 564 1033 396 596 q 676 1058 608 1058 q 706 1058 692 1058 q 740 1058 719 1058 q 790 1050 760 1058 q 854 240 792 985 q 869 159 860 178 q 903 140 879 140 q 1006 193 942 140 q 1122 325 1071 246 l 1161 231 l 1128 186 q 844 -3 982 -3 m 624 817 l 503 479 q 647 528 600 513 l 624 817 m 275 290 q 146 163 146 225 q 179 118 146 118 q 219 154 204 118 q 275 290 238 193 z "},"ร":{"ha":992,"x_min":47,"x_max":1161,"o":"m 597 1153 l 774 1413 q 839 1359 801 1399 q 900 1286 876 1319 l 650 1101 q 597 1153 633 1111 m 844 -3 q 727 48 767 -3 q 674 238 688 99 q 657 425 665 310 q 461 364 560 396 l 414 233 q 394 180 400 196 q 374 132 389 164 q 349 85 360 100 q 320 49 339 71 q 282 17 301 26 q 175 -8 232 -8 q 83 33 118 -8 q 47 133 47 74 q 50 168 47 150 q 324 411 68 301 q 564 1033 396 596 q 676 1058 608 1058 q 706 1058 692 1058 q 740 1058 719 1058 q 790 1050 760 1058 q 854 240 792 985 q 869 159 860 178 q 903 140 879 140 q 1006 193 942 140 q 1122 325 1071 246 l 1161 231 l 1128 186 q 844 -3 982 -3 m 624 817 l 503 479 q 647 528 600 513 l 624 817 m 275 290 q 146 163 146 225 q 179 118 146 118 q 219 154 204 118 q 275 290 238 193 z "},"ร":{"ha":992,"x_min":47,"x_max":1161,"o":"m 693 1361 l 935 1193 q 889 1113 906 1139 l 693 1214 l 497 1113 q 451 1193 481 1139 l 693 1361 m 844 -3 q 727 48 767 -3 q 674 238 688 99 q 657 425 665 310 q 461 364 560 396 l 414 233 q 394 180 400 196 q 374 132 389 164 q 349 85 360 100 q 320 49 339 71 q 282 17 301 26 q 175 -8 232 -8 q 83 33 118 -8 q 47 133 47 74 q 50 168 47 150 q 324 411 68 301 q 564 1033 396 596 q 676 1058 608 1058 q 706 1058 692 1058 q 740 1058 719 1058 q 790 1050 760 1058 q 854 240 792 985 q 869 159 860 178 q 903 140 879 140 q 1006 193 942 140 q 1122 325 1071 246 l 1161 231 l 1128 186 q 844 -3 982 -3 m 624 817 l 503 479 q 647 528 600 513 l 624 817 m 275 290 q 146 163 146 225 q 179 118 146 118 q 219 154 204 118 q 275 290 238 193 z "},"ร":{"ha":992,"x_min":47,"x_max":1161,"o":"m 598 1360 q 628 1360 598 1360 q 735 1311 658 1360 q 843 1263 811 1263 q 946 1357 907 1263 l 1007 1322 q 947 1174 994 1232 q 833 1117 899 1117 q 694 1168 768 1117 q 589 1221 619 1221 q 536 1203 558 1221 q 492 1139 514 1186 l 431 1175 q 493 1308 449 1256 q 598 1360 538 1360 m 844 -3 q 727 48 767 -3 q 674 238 688 99 q 657 425 665 310 q 461 364 560 396 l 414 233 q 394 180 400 196 q 374 132 389 164 q 349 85 360 100 q 320 49 339 71 q 282 17 301 26 q 175 -8 232 -8 q 83 33 118 -8 q 47 133 47 74 q 50 168 47 150 q 324 411 68 301 q 564 1033 396 596 q 676 1058 608 1058 q 706 1058 692 1058 q 740 1058 719 1058 q 790 1050 760 1058 q 854 240 792 985 q 869 159 860 178 q 903 140 879 140 q 1006 193 942 140 q 1122 325 1071 246 l 1161 231 l 1128 186 q 844 -3 982 -3 m 624 817 l 503 479 q 647 528 600 513 l 624 817 m 146 163 q 179 118 146 118 q 219 154 204 118 q 275 290 238 193 q 146 163 146 225 z "},"ร":{"ha":992,"x_min":47,"x_max":1161,"o":"m 424 1228 q 424 1249 424 1228 q 452 1299 424 1269 q 522 1329 481 1329 q 593 1299 564 1329 q 622 1228 622 1269 q 593 1157 622 1186 q 522 1128 564 1128 q 452 1157 481 1128 q 424 1228 424 1186 m 785 1299 q 800 1314 785 1299 q 857 1329 815 1329 q 928 1299 899 1329 q 957 1228 957 1269 q 928 1157 957 1186 q 858 1128 900 1128 q 785 1157 815 1128 q 756 1228 756 1186 q 785 1299 756 1269 m 844 -3 q 727 48 767 -3 q 674 238 688 99 q 657 425 665 310 q 461 364 560 396 l 414 233 q 394 180 400 196 q 374 132 389 164 q 349 85 360 100 q 320 49 339 71 q 282 17 301 26 q 175 -8 232 -8 q 83 33 118 -8 q 47 133 47 74 q 50 168 47 150 q 324 411 68 301 q 564 1033 396 596 q 676 1058 608 1058 q 706 1058 692 1058 q 740 1058 719 1058 q 790 1050 760 1058 q 854 240 792 985 q 869 159 860 178 q 903 140 879 140 q 1006 193 942 140 q 1122 325 1071 246 l 1161 231 l 1128 186 q 844 -3 982 -3 m 624 817 l 503 479 q 647 528 600 513 l 624 817 m 146 163 q 179 118 146 118 q 219 154 204 118 q 275 290 238 193 q 146 163 146 225 z "},"ร":{"ha":992,"x_min":47,"x_max":1161,"o":"m 844 -3 q 727 48 767 -3 q 674 238 688 99 q 657 425 665 310 q 461 364 560 396 l 414 233 q 394 180 400 196 q 374 132 389 164 q 349 85 360 100 q 320 49 339 71 q 282 17 301 26 q 175 -8 232 -8 q 83 33 118 -8 q 47 133 47 74 q 50 168 47 150 q 324 411 68 301 q 564 1033 396 596 l 592 1046 q 526 1158 526 1088 q 569 1270 526 1228 q 672 1313 611 1313 q 776 1270 733 1313 q 818 1164 818 1228 q 767 1056 818 1100 l 790 1050 q 854 240 792 985 q 869 159 860 178 q 903 140 879 140 q 1006 193 942 140 q 1122 325 1071 246 l 1161 231 l 1128 186 q 844 -3 982 -3 m 720 1215 q 710 1225 720 1215 q 672 1235 700 1235 q 624 1215 644 1235 q 604 1167 604 1194 q 624 1119 604 1139 q 672 1099 644 1099 q 720 1119 700 1099 q 740 1167 740 1139 q 720 1215 740 1194 m 624 817 l 503 479 q 647 528 600 513 l 624 817 m 146 163 q 179 118 146 118 q 219 154 204 118 q 275 290 238 193 q 146 163 146 225 z "},"ร":{"ha":1661,"x_min":49,"x_max":1525,"o":"m 943 485 q 863 315 863 428 q 913 182 863 244 q 1085 119 964 119 q 1314 201 1206 119 q 1478 381 1422 283 l 1525 296 q 1026 -8 1346 -8 q 758 77 868 -8 q 649 278 649 163 q 663 379 649 336 l 658 425 q 463 364 561 396 l 415 233 q 396 180 401 196 q 376 132 390 164 q 351 85 361 100 q 322 49 340 71 q 283 17 303 26 q 176 -8 233 -8 q 84 33 119 -8 q 49 133 49 74 q 51 168 49 150 q 325 411 69 301 q 565 1033 397 596 q 682 1058 611 1058 l 724 1056 q 750 1050 731 1056 q 769 767 753 957 q 892 974 781 890 q 1145 1057 1004 1057 q 1366 982 1286 1057 q 1446 785 1446 907 l 1314 785 q 1274 898 1315 860 q 1160 936 1233 936 q 1029 883 1088 936 q 964 750 964 826 q 1006 618 964 674 q 1217 600 1144 635 q 1261 534 1261 579 q 1210 471 1261 489 q 1089 453 1160 453 q 943 485 1018 453 m 625 817 l 504 479 q 650 528 601 513 l 625 817 m 776 668 l 788 546 q 809 558 794 550 q 828 569 824 567 q 776 668 793 614 m 147 163 q 181 118 147 118 q 221 154 206 118 q 276 290 239 193 q 147 163 147 225 z "},"ร":{"ha":799,"x_min":42,"x_max":938,"o":"m 479 -44 q 572 -78 531 -44 q 613 -175 613 -111 q 565 -279 613 -239 q 456 -319 517 -319 q 310 -253 357 -319 l 335 -200 q 378 -237 347 -219 q 440 -256 410 -256 q 491 -233 471 -256 q 511 -174 511 -210 q 484 -118 511 -139 q 418 -97 457 -97 q 372 -99 379 -97 l 407 -7 q 130 115 218 7 q 42 397 42 224 q 103 719 42 571 q 288 962 165 867 q 552 1057 410 1057 q 776 988 694 1057 q 857 803 857 919 q 785 611 857 688 q 618 535 714 535 q 469 577 522 535 q 417 667 417 619 q 455 742 417 715 q 567 769 493 769 q 549 722 549 751 q 567 669 549 692 q 622 647 585 647 q 697 687 660 647 q 735 792 735 726 q 695 896 735 857 q 583 935 656 935 q 412 858 489 935 q 294 664 335 782 q 254 415 254 546 q 303 217 254 303 q 377 146 328 172 q 493 119 426 119 q 713 192 607 119 q 890 381 818 265 l 938 296 q 743 85 860 168 q 485 -7 626 1 l 471 -46 l 479 -44 z "},"ร":{"ha":668,"x_min":31,"x_max":907,"o":"m 503 1413 l 679 1153 q 626 1101 643 1111 l 376 1286 q 438 1359 400 1319 q 503 1413 475 1399 m 325 485 q 244 315 244 428 q 295 182 244 244 q 467 119 346 119 q 696 201 588 119 q 860 381 804 283 l 907 296 q 408 -8 728 -8 q 140 77 250 -8 q 31 278 31 163 q 210 569 31 479 q 150 742 150 643 q 262 964 150 871 q 521 1057 374 1057 q 748 982 668 1057 q 828 785 828 907 l 696 785 q 656 898 697 860 q 542 936 615 936 q 411 883 469 936 q 346 750 346 826 q 388 618 346 674 q 599 600 526 635 q 643 534 643 579 q 592 471 643 489 q 471 453 542 453 q 325 485 400 453 z "},"ร":{"ha":668,"x_min":31,"x_max":907,"o":"m 449 1153 l 625 1413 q 690 1359 653 1399 q 751 1286 728 1319 l 501 1101 q 449 1153 485 1111 m 325 485 q 244 315 244 428 q 295 182 244 244 q 467 119 346 119 q 696 201 588 119 q 860 381 804 283 l 907 296 q 408 -8 728 -8 q 140 77 250 -8 q 31 278 31 163 q 210 569 31 479 q 150 742 150 643 q 262 964 150 871 q 521 1057 374 1057 q 748 982 668 1057 q 828 785 828 907 l 696 785 q 656 898 697 860 q 542 936 615 936 q 411 883 469 936 q 346 750 346 826 q 388 618 346 674 q 599 600 526 635 q 643 534 643 579 q 592 471 643 489 q 471 453 542 453 q 325 485 400 453 z "},"ร":{"ha":668,"x_min":31,"x_max":907,"o":"m 544 1361 l 786 1193 q 740 1113 757 1139 l 544 1214 l 349 1113 q 303 1193 332 1139 l 544 1361 m 325 485 q 244 315 244 428 q 295 182 244 244 q 467 119 346 119 q 696 201 588 119 q 860 381 804 283 l 907 296 q 408 -8 728 -8 q 140 77 250 -8 q 31 278 31 163 q 210 569 31 479 q 150 742 150 643 q 262 964 150 871 q 521 1057 374 1057 q 748 982 668 1057 q 828 785 828 907 l 696 785 q 656 898 697 860 q 542 936 615 936 q 411 883 469 936 q 346 750 346 826 q 388 618 346 674 q 599 600 526 635 q 643 534 643 579 q 592 471 643 489 q 471 453 542 453 q 325 485 400 453 z "},"ร":{"ha":668,"x_min":31,"x_max":907,"o":"m 275 1228 q 275 1249 275 1228 q 303 1299 275 1269 q 374 1329 332 1329 q 444 1299 415 1329 q 474 1228 474 1269 q 444 1157 474 1186 q 374 1128 415 1128 q 303 1157 332 1128 q 275 1228 275 1186 m 637 1299 q 652 1314 637 1299 q 708 1329 667 1329 q 779 1299 750 1329 q 808 1228 808 1269 q 780 1157 808 1186 q 709 1128 751 1128 q 637 1157 667 1128 q 607 1228 607 1186 q 637 1299 607 1269 m 325 485 q 244 315 244 428 q 295 182 244 244 q 467 119 346 119 q 696 201 588 119 q 860 381 804 283 l 907 296 q 408 -8 728 -8 q 140 77 250 -8 q 31 278 31 163 q 210 569 31 479 q 150 742 150 643 q 262 964 150 871 q 521 1057 374 1057 q 748 982 668 1057 q 828 785 828 907 l 696 785 q 656 898 697 860 q 542 936 615 936 q 411 883 469 936 q 346 750 346 826 q 388 618 346 674 q 599 600 526 635 q 643 534 643 579 q 592 471 643 489 q 471 453 542 453 q 325 485 400 453 z "},"ร":{"ha":671,"x_min":56,"x_max":774,"o":"m 436 1413 l 613 1153 q 560 1101 576 1111 l 310 1286 q 371 1359 333 1319 q 436 1413 408 1399 m 772 900 q 728 910 750 910 q 687 883 707 910 q 660 807 667 857 l 588 292 q 491 71 568 151 q 299 -10 414 -10 q 120 55 183 -10 q 57 209 57 119 q 119 361 57 299 q 275 424 181 424 q 367 415 333 424 l 360 331 q 287 336 336 336 q 199 303 238 336 q 161 219 161 269 q 189 142 161 169 q 256 115 217 115 q 392 288 372 115 q 446 753 429 632 q 299 724 363 724 q 144 771 197 724 q 90 894 90 818 q 145 1015 90 971 q 283 1058 200 1058 q 431 1026 335 1058 q 581 994 528 994 q 739 1043 675 994 q 774 928 774 994 q 772 900 774 914 m 228 857 q 251 821 228 836 q 320 806 274 806 q 442 847 367 806 q 331 876 388 860 q 263 892 274 892 q 228 857 228 892 z "},"ร":{"ha":671,"x_min":56,"x_max":774,"o":"m 382 1153 l 558 1413 q 624 1359 586 1399 q 685 1286 661 1319 l 435 1101 q 382 1153 418 1111 m 772 900 q 728 910 750 910 q 687 883 707 910 q 660 807 667 857 l 588 292 q 491 71 568 151 q 299 -10 414 -10 q 120 55 183 -10 q 57 209 57 119 q 119 361 57 299 q 275 424 181 424 q 367 415 333 424 l 360 331 q 287 336 336 336 q 199 303 238 336 q 161 219 161 269 q 189 142 161 169 q 256 115 217 115 q 392 288 372 115 q 446 753 429 632 q 299 724 363 724 q 144 771 197 724 q 90 894 90 818 q 145 1015 90 971 q 283 1058 200 1058 q 431 1026 335 1058 q 581 994 528 994 q 739 1043 675 994 q 774 928 774 994 q 772 900 774 914 m 228 857 q 251 821 228 836 q 320 806 274 806 q 442 847 367 806 q 331 876 388 860 q 263 892 274 892 q 228 857 228 892 z "},"ร":{"ha":671,"x_min":56,"x_max":774,"o":"m 478 1361 l 719 1193 q 674 1113 690 1139 l 478 1214 l 282 1113 q 236 1193 265 1139 l 478 1361 m 772 900 q 728 910 750 910 q 687 883 707 910 q 660 807 667 857 l 588 292 q 491 71 568 151 q 299 -10 414 -10 q 120 55 183 -10 q 57 209 57 119 q 119 361 57 299 q 275 424 181 424 q 367 415 333 424 l 360 331 q 287 336 336 336 q 199 303 238 336 q 161 219 161 269 q 189 142 161 169 q 256 115 217 115 q 392 288 372 115 q 446 753 429 632 q 299 724 363 724 q 144 771 197 724 q 90 894 90 818 q 145 1015 90 971 q 283 1058 200 1058 q 431 1026 335 1058 q 581 994 528 994 q 739 1043 675 994 q 774 928 774 994 q 772 900 774 914 m 228 857 q 251 821 228 836 q 320 806 274 806 q 442 847 367 806 q 331 876 388 860 q 263 892 274 892 q 228 857 228 892 z "},"ร":{"ha":671,"x_min":56,"x_max":774,"o":"m 208 1228 q 208 1249 208 1228 q 237 1299 208 1269 q 307 1329 265 1329 q 378 1299 349 1329 q 407 1228 407 1269 q 378 1157 407 1186 q 307 1128 349 1128 q 237 1157 265 1128 q 208 1228 208 1186 m 570 1299 q 585 1314 570 1299 q 642 1329 600 1329 q 713 1299 683 1329 q 742 1228 742 1269 q 713 1157 742 1186 q 642 1128 685 1128 q 570 1157 600 1128 q 540 1228 540 1186 q 570 1299 540 1269 m 772 900 q 728 910 750 910 q 687 883 707 910 q 660 807 667 857 l 588 292 q 491 71 568 151 q 299 -10 414 -10 q 120 55 183 -10 q 57 209 57 119 q 119 361 57 299 q 275 424 181 424 q 367 415 333 424 l 360 331 q 287 336 336 336 q 199 303 238 336 q 161 219 161 269 q 189 142 161 169 q 256 115 217 115 q 392 288 372 115 q 446 753 429 632 q 299 724 363 724 q 144 771 197 724 q 90 894 90 818 q 145 1015 90 971 q 283 1058 200 1058 q 431 1026 335 1058 q 581 994 528 994 q 739 1043 675 994 q 774 928 774 994 q 772 900 774 914 m 228 857 q 251 821 228 836 q 320 806 274 806 q 442 847 367 806 q 331 876 388 860 q 263 892 274 892 q 228 857 228 892 z "},"ร":{"ha":1033,"x_min":42,"x_max":1038,"o":"m 63 742 q 192 978 63 893 q 489 1063 321 1063 q 867 939 704 1063 q 992 773 947 876 q 1036 544 1036 669 q 896 144 1036 299 q 531 -12 750 -12 q 428 0 482 -12 q 342 33 374 13 q 210 -6 290 -6 q 86 39 131 -6 q 42 153 42 83 q 290 432 42 317 l 304 543 l 60 543 l 72 663 l 83 663 q 63 742 63 700 m 418 135 q 488 124 461 124 q 735 244 647 124 q 825 550 825 371 q 660 879 825 779 q 458 935 568 935 q 236 858 318 935 q 189 754 189 815 q 206 697 189 725 q 267 663 224 669 l 319 663 q 342 831 336 801 q 474 867 399 867 q 540 860 508 867 l 511 663 l 603 663 l 590 543 l 493 543 l 453 267 q 418 135 440 188 m 144 171 q 192 121 144 121 q 233 147 211 121 q 263 228 254 172 l 275 314 q 144 171 144 240 z "},"ร":{"ha":1014,"x_min":36,"x_max":1151,"o":"m 567 1360 q 598 1360 567 1360 q 704 1311 628 1360 q 813 1263 781 1263 q 915 1357 876 1263 l 976 1322 q 916 1174 964 1232 q 803 1117 868 1117 q 664 1168 738 1117 q 558 1221 589 1221 q 506 1203 528 1221 q 461 1139 483 1186 l 400 1175 q 463 1308 418 1256 q 567 1360 507 1360 m 822 856 q 883 1010 838 963 q 1004 1057 929 1057 q 1115 1013 1079 1057 q 1150 925 1150 969 q 1147 897 1150 911 q 943 657 1117 743 l 846 0 l 613 0 l 447 732 l 371 190 q 308 39 356 88 q 196 -10 260 -10 q 90 28 132 -10 q 38 135 47 65 q 36 157 36 146 q 243 393 36 294 l 303 840 q 363 856 338 856 q 407 851 389 856 q 306 901 375 901 q 183 829 236 901 l 157 949 q 249 1022 183 985 q 395 1058 315 1058 q 531 1010 475 1058 q 611 850 586 963 l 742 300 l 822 856 m 961 776 q 1047 890 1047 838 q 1040 913 1047 900 q 1019 925 1033 925 q 983 896 993 925 q 961 776 969 856 m 229 278 q 133 172 133 224 q 171 121 133 121 q 207 153 196 121 q 228 271 218 186 l 229 278 z "},"ร":{"ha":1038,"x_min":111,"x_max":1285,"o":"m 614 1413 l 790 1153 q 738 1101 754 1111 l 488 1286 q 549 1359 511 1319 q 614 1413 586 1399 m 1285 558 q 1179 497 1253 524 q 1062 469 1106 469 q 997 472 1018 469 q 820 129 963 267 q 490 -8 678 -8 q 206 108 301 -8 q 111 413 111 225 q 149 651 111 535 q 252 857 186 767 q 418 1002 318 947 q 627 1057 518 1057 q 806 1008 736 1057 q 876 871 876 958 q 830 752 876 804 q 701 700 783 700 q 625 722 658 700 q 592 790 592 743 q 603 829 592 813 q 625 850 614 846 l 638 856 q 682 800 638 800 q 718 815 703 800 q 735 847 733 829 q 733 876 736 865 q 722 900 731 886 q 640 935 703 935 q 485 857 558 935 q 367 657 411 779 q 324 407 324 535 q 358 217 324 300 q 415 147 378 172 q 506 121 453 121 q 662 194 593 121 q 763 372 731 268 q 796 583 796 476 l 796 600 q 792 629 792 615 q 839 731 792 696 q 915 753 869 753 q 956 749 928 753 q 994 736 983 744 q 949 717 965 735 q 933 668 933 699 q 961 611 933 638 q 1083 574 1000 574 q 1254 642 1165 574 l 1285 558 z "},"ร":{"ha":1038,"x_min":111,"x_max":1285,"o":"m 560 1153 l 736 1413 q 801 1359 764 1399 q 863 1286 839 1319 l 613 1101 q 560 1153 596 1111 m 1285 558 q 1179 497 1253 524 q 1062 469 1106 469 q 997 472 1018 469 q 820 129 963 267 q 490 -8 678 -8 q 206 108 301 -8 q 111 413 111 225 q 149 651 111 535 q 252 857 186 767 q 418 1002 318 947 q 627 1057 518 1057 q 806 1008 736 1057 q 876 871 876 958 q 830 752 876 804 q 701 700 783 700 q 625 722 658 700 q 592 790 592 743 q 603 829 592 813 q 625 850 614 846 l 638 856 q 682 800 638 800 q 718 815 703 800 q 735 847 733 829 q 733 876 736 865 q 722 900 731 886 q 640 935 703 935 q 485 857 558 935 q 367 657 411 779 q 324 407 324 535 q 358 217 324 300 q 415 147 378 172 q 506 121 453 121 q 662 194 593 121 q 763 372 731 268 q 796 583 796 476 l 796 600 q 792 629 792 615 q 839 731 792 696 q 915 753 869 753 q 956 749 928 753 q 994 736 983 744 q 949 717 965 735 q 933 668 933 699 q 961 611 933 638 q 1083 574 1000 574 q 1254 642 1165 574 l 1285 558 z "},"ร":{"ha":1038,"x_min":111,"x_max":1285,"o":"m 656 1361 l 897 1193 q 851 1113 868 1139 l 656 1214 l 460 1113 q 414 1193 443 1139 l 656 1361 m 1285 558 q 1179 497 1253 524 q 1062 469 1106 469 q 997 472 1018 469 q 820 129 963 267 q 490 -8 678 -8 q 206 108 301 -8 q 111 413 111 225 q 149 651 111 535 q 252 857 186 767 q 418 1002 318 947 q 627 1057 518 1057 q 806 1008 736 1057 q 876 871 876 958 q 830 752 876 804 q 701 700 783 700 q 625 722 658 700 q 592 790 592 743 q 603 829 592 813 q 625 850 614 846 l 638 856 q 682 800 638 800 q 718 815 703 800 q 735 847 733 829 q 733 876 736 865 q 722 900 731 886 q 640 935 703 935 q 485 857 558 935 q 367 657 411 779 q 324 407 324 535 q 358 217 324 300 q 415 147 378 172 q 506 121 453 121 q 662 194 593 121 q 763 372 731 268 q 796 583 796 476 l 796 600 q 792 629 792 615 q 839 731 792 696 q 915 753 869 753 q 956 749 928 753 q 994 736 983 744 q 949 717 965 735 q 933 668 933 699 q 961 611 933 638 q 1083 574 1000 574 q 1254 642 1165 574 l 1285 558 z "},"ร":{"ha":1038,"x_min":111,"x_max":1285,"o":"m 560 1360 q 591 1360 560 1360 q 697 1311 621 1360 q 806 1263 774 1263 q 908 1357 869 1263 l 969 1322 q 909 1174 957 1232 q 796 1117 861 1117 q 658 1168 731 1117 q 551 1221 582 1221 q 499 1203 521 1221 q 454 1139 476 1186 l 393 1175 q 456 1308 411 1256 q 560 1360 500 1360 m 1285 558 q 1179 497 1253 524 q 1062 469 1106 469 q 997 472 1018 469 q 820 129 963 267 q 490 -8 678 -8 q 206 108 301 -8 q 111 413 111 225 q 149 651 111 535 q 252 857 186 767 q 418 1002 318 947 q 627 1057 518 1057 q 806 1008 736 1057 q 876 871 876 958 q 830 752 876 804 q 701 700 783 700 q 625 722 658 700 q 592 790 592 743 q 603 829 592 813 q 625 850 614 846 l 638 856 q 682 800 638 800 q 718 815 703 800 q 735 847 733 829 q 733 876 736 865 q 722 900 731 886 q 640 935 703 935 q 485 857 558 935 q 367 657 411 779 q 324 407 324 535 q 358 217 324 300 q 415 147 378 172 q 506 121 453 121 q 662 194 593 121 q 763 372 731 268 q 796 583 796 476 l 796 600 q 792 629 792 615 q 839 731 792 696 q 915 753 869 753 q 956 749 928 753 q 994 736 983 744 q 949 717 965 735 q 933 668 933 699 q 961 611 933 638 q 1083 574 1000 574 q 1254 642 1165 574 l 1285 558 z "},"ร":{"ha":1038,"x_min":111,"x_max":1285,"o":"m 386 1228 q 386 1249 386 1228 q 415 1299 386 1269 q 485 1329 443 1329 q 556 1299 526 1329 q 585 1228 585 1269 q 556 1157 585 1186 q 485 1128 526 1128 q 415 1157 443 1128 q 386 1228 386 1186 m 748 1299 q 763 1314 748 1299 q 819 1329 778 1329 q 890 1299 861 1329 q 919 1228 919 1269 q 891 1157 919 1186 q 820 1128 863 1128 q 748 1157 778 1128 q 718 1228 718 1186 q 748 1299 718 1269 m 1285 558 q 1179 497 1253 524 q 1062 469 1106 469 q 997 472 1018 469 q 820 129 963 267 q 490 -8 678 -8 q 206 108 301 -8 q 111 413 111 225 q 149 651 111 535 q 252 857 186 767 q 418 1002 318 947 q 627 1057 518 1057 q 806 1008 736 1057 q 876 871 876 958 q 830 752 876 804 q 701 700 783 700 q 625 722 658 700 q 592 790 592 743 q 603 829 592 813 q 625 850 614 846 l 638 856 q 682 800 638 800 q 718 815 703 800 q 735 847 733 829 q 733 876 736 865 q 722 900 731 886 q 640 935 703 935 q 485 857 558 935 q 367 657 411 779 q 324 407 324 535 q 358 217 324 300 q 415 147 378 172 q 506 121 453 121 q 662 194 593 121 q 763 372 731 268 q 796 583 796 476 l 796 600 q 792 629 792 615 q 839 731 792 696 q 915 753 869 753 q 956 749 928 753 q 994 736 983 744 q 949 717 965 735 q 933 668 933 699 q 961 611 933 638 q 1083 574 1000 574 q 1254 642 1165 574 l 1285 558 z "},"ร":{"ha":532,"x_min":-65,"x_max":638,"o":"m 542 96 l 293 367 l 11 89 l -65 175 l 215 451 l -18 706 l 68 792 l 303 539 l 564 796 l 638 708 l 381 454 l 632 183 l 542 96 z "},"ร":{"ha":1038,"x_min":111,"x_max":1285,"o":"m 1285 558 q 1179 497 1253 524 q 1062 469 1106 469 q 997 472 1018 469 q 820 129 963 267 q 481 -8 678 -8 l 454 -8 l 432 -83 l 317 -83 l 346 13 q 171 159 231 53 q 111 400 111 265 q 149 651 111 535 q 252 857 186 767 q 418 1002 318 947 q 635 1057 518 1057 l 658 1056 l 675 1113 l 790 1113 l 765 1031 q 876 871 876 981 q 830 752 876 804 q 701 700 783 700 q 668 704 685 700 l 493 121 l 506 121 q 662 194 593 121 q 763 372 731 268 q 796 583 796 476 l 796 600 q 792 629 792 615 q 839 731 792 696 q 915 753 869 753 q 956 749 928 753 q 994 736 983 744 q 949 717 965 735 q 933 668 933 699 q 961 611 933 638 q 1083 574 1000 574 q 1254 642 1165 574 l 1285 558 m 324 407 q 392 168 324 240 l 621 933 q 474 845 543 924 q 364 649 404 767 q 324 407 324 531 m 725 896 l 697 803 q 736 857 732 813 q 725 896 736 876 z "},"ร":{"ha":836,"x_min":0,"x_max":1031,"o":"m 435 1413 l 611 1153 q 558 1101 575 1111 l 308 1286 q 369 1359 332 1319 q 435 1413 407 1399 m 613 1025 q 666 1047 621 1036 q 751 1057 711 1057 q 818 1046 792 1057 q 717 207 717 235 q 734 158 717 179 q 785 136 751 136 q 949 388 876 136 q 950 394 949 390 q 951 400 951 399 q 1031 351 1013 361 q 917 84 985 176 q 742 -8 849 -8 q 597 93 635 -8 l 593 93 q 497 15 550 39 q 365 -8 444 -8 q 165 60 235 -8 q 94 254 94 128 q 99 313 94 281 l 138 638 q 0 867 0 735 q 53 1006 0 954 q 188 1057 106 1057 q 358 876 358 1057 q 354 811 358 847 l 283 268 q 282 239 282 258 q 307 151 282 185 q 383 118 332 118 q 529 310 507 118 l 613 1025 m 136 929 q 89 872 89 929 q 153 758 89 814 l 157 794 q 167 885 165 867 q 136 929 167 929 z "},"ร":{"ha":836,"x_min":0,"x_max":1031,"o":"m 381 1153 l 557 1413 q 622 1359 585 1399 q 683 1286 660 1319 l 433 1101 q 381 1153 417 1111 m 613 1025 q 666 1047 621 1036 q 751 1057 711 1057 q 818 1046 792 1057 q 717 207 717 235 q 734 158 717 179 q 785 136 751 136 q 949 388 876 136 q 950 394 949 390 q 951 400 951 399 q 1031 351 1013 361 q 917 84 985 176 q 742 -8 849 -8 q 597 93 635 -8 l 593 93 q 497 15 550 39 q 365 -8 444 -8 q 165 60 235 -8 q 94 254 94 128 q 99 313 94 281 l 138 638 q 0 867 0 735 q 53 1006 0 954 q 188 1057 106 1057 q 358 876 358 1057 q 354 811 358 847 l 283 268 q 282 239 282 258 q 307 151 282 185 q 383 118 332 118 q 529 310 507 118 l 613 1025 m 136 929 q 89 872 89 929 q 153 758 89 814 l 157 794 q 167 885 165 867 q 136 929 167 929 z "},"ร":{"ha":836,"x_min":0,"x_max":1031,"o":"m 476 1361 l 718 1193 q 672 1113 689 1139 l 476 1214 l 281 1113 q 235 1193 264 1139 l 476 1361 m 613 1025 q 666 1047 621 1036 q 751 1057 711 1057 q 818 1046 792 1057 q 717 207 717 235 q 734 158 717 179 q 785 136 751 136 q 949 388 876 136 q 950 394 949 390 q 951 400 951 399 q 1031 351 1013 361 q 917 84 985 176 q 742 -8 849 -8 q 597 93 635 -8 l 593 93 q 497 15 550 39 q 365 -8 444 -8 q 165 60 235 -8 q 94 254 94 128 q 99 313 94 281 l 138 638 q 0 867 0 735 q 53 1006 0 954 q 188 1057 106 1057 q 358 876 358 1057 q 354 811 358 847 l 283 268 q 282 239 282 258 q 307 151 282 185 q 383 118 332 118 q 529 310 507 118 l 613 1025 m 136 929 q 89 872 89 929 q 153 758 89 814 l 157 794 q 167 885 165 867 q 136 929 167 929 z "},"ร":{"ha":836,"x_min":0,"x_max":1031,"o":"m 207 1228 q 207 1249 207 1228 q 235 1299 207 1269 q 306 1329 264 1329 q 376 1299 347 1329 q 406 1228 406 1269 q 376 1157 406 1186 q 306 1128 347 1128 q 235 1157 264 1128 q 207 1228 207 1186 m 569 1299 q 584 1314 569 1299 q 640 1329 599 1329 q 711 1299 682 1329 q 740 1228 740 1269 q 712 1157 740 1186 q 641 1128 683 1128 q 569 1157 599 1128 q 539 1228 539 1186 q 569 1299 539 1269 m 613 1025 q 666 1047 621 1036 q 751 1057 711 1057 q 818 1046 792 1057 q 717 207 717 235 q 734 158 717 179 q 785 136 751 136 q 949 388 876 136 q 950 394 949 390 q 951 400 951 399 q 1031 351 1013 361 q 917 84 985 176 q 742 -8 849 -8 q 597 93 635 -8 l 593 93 q 497 15 550 39 q 365 -8 444 -8 q 165 60 235 -8 q 94 254 94 128 q 99 313 94 281 l 138 638 q 0 867 0 735 q 53 1006 0 954 q 188 1057 106 1057 q 358 876 358 1057 q 354 811 358 847 l 283 268 q 282 239 282 258 q 307 151 282 185 q 383 118 332 118 q 529 310 507 118 l 613 1025 m 136 929 q 89 872 89 929 q 153 758 89 814 l 157 794 q 167 885 165 867 q 136 929 167 929 z "},"ร":{"ha":894,"x_min":35,"x_max":1033,"o":"m 465 1153 l 642 1413 q 707 1359 669 1399 q 768 1286 744 1319 l 518 1101 q 465 1153 501 1111 m 435 893 l 433 869 q 394 547 429 804 q 351 225 351 239 q 378 155 351 183 q 448 126 404 126 q 528 156 492 126 q 585 228 565 186 l 663 938 q 715 1030 669 1001 q 810 1058 760 1058 q 879 1044 843 1058 l 786 275 q 1013 375 969 360 l 1033 278 q 774 163 911 228 l 739 -121 q 702 -249 731 -196 q 633 -331 674 -303 q 473 -381 560 -381 q 328 -317 386 -381 q 271 -165 271 -254 q 329 -4 271 -76 q 207 60 256 8 q 158 189 158 113 q 161 219 158 197 l 206 561 q 35 828 35 669 q 142 1031 35 975 q 256 1058 192 1058 q 378 1017 321 1058 q 435 893 435 976 m 204 946 q 149 914 171 946 q 128 838 128 882 q 219 678 128 740 l 246 878 q 218 944 246 935 q 204 946 213 946 m 376 -147 q 399 -218 376 -193 q 454 -243 422 -243 q 511 -220 486 -243 q 542 -156 536 -197 l 567 63 q 376 -147 376 -42 z "},"ร":{"ha":833,"x_min":-57,"x_max":829,"o":"m 829 524 q 782 369 829 435 q 669 271 735 303 q 410 210 547 210 l 381 210 q 499 -126 499 42 q 440 -310 499 -239 q 274 -381 382 -381 q 141 -327 196 -381 q 86 -189 86 -274 l 93 -119 l 135 210 l 135 215 q 144 315 136 261 q 1 385 60 331 q -57 507 -57 439 q 11 680 -57 606 q 200 786 79 754 q 231 1046 225 1010 q 308 1057 260 1057 q 419 993 419 1057 l 396 807 q 724 719 619 803 q 829 524 829 635 m 385 313 q 561 356 490 313 q 632 500 632 400 q 565 624 632 575 q 379 679 499 674 l 329 275 q 367 228 344 258 l 378 313 q 385 313 381 313 m 68 508 q 92 451 68 475 q 157 418 117 428 l 185 651 q 68 508 68 604 m 278 -156 q 276 -187 276 -164 q 291 -232 276 -211 q 329 -253 306 -253 q 376 -224 353 -253 q 400 -129 400 -196 q 310 117 400 -11 l 278 -156 z "},"ร":{"ha":800,"x_min":28,"x_max":765,"o":"m 418 -214 q 353 -409 418 -342 q 210 -476 289 -476 q 80 -429 132 -476 q 28 -289 28 -382 q 156 821 28 -267 q 234 988 167 918 q 420 1057 301 1057 q 624 1000 539 1057 q 708 854 708 943 q 671 741 708 790 q 594 667 633 692 q 494 558 494 599 q 503 533 494 540 q 516 522 513 525 q 528 514 519 519 q 559 493 544 503 q 604 463 574 483 q 658 424 635 442 q 711 375 682 406 q 765 219 765 318 q 685 56 765 119 q 482 -8 604 -8 q 335 37 397 -8 q 274 150 274 82 q 319 251 274 218 q 407 283 365 283 q 425 281 422 283 q 403 256 413 276 q 393 203 393 235 q 416 146 393 171 q 475 121 439 121 q 537 144 511 121 q 565 210 563 167 q 540 293 565 257 q 451 390 515 329 q 386 510 386 451 q 417 622 386 568 q 483 738 449 676 q 518 846 518 799 q 499 913 518 893 q 449 935 476 935 q 406 926 422 935 q 377 899 389 918 q 357 847 365 879 q 338 735 346 803 q 323 598 331 667 q 293 369 315 529 q 264 149 271 208 l 254 68 q 418 -214 418 -57 m 213 -285 q 268 -350 213 -350 q 310 -319 290 -350 q 331 -233 331 -289 q 243 -31 331 -122 l 214 -258 q 213 -285 213 -268 z "},"ร":{"ha":761,"x_min":42,"x_max":907,"o":"m 425 1024 l 601 764 q 549 713 565 722 l 299 897 q 360 970 322 931 q 425 1024 397 1010 m 664 -7 q 494 82 536 -7 q 309 -8 422 -8 q 119 68 196 -8 q 42 269 42 144 q 149 560 42 451 q 419 668 256 668 q 428 668 424 668 q 556 644 497 668 q 647 668 593 668 q 724 654 700 668 q 697 452 711 551 q 678 311 683 353 q 665 175 665 217 q 710 119 665 119 q 783 166 744 119 q 851 313 822 213 q 907 232 892 276 q 799 47 867 100 q 664 -7 731 -7 m 440 560 q 299 492 351 560 q 238 292 247 425 q 236 268 236 279 q 269 160 236 200 q 353 119 301 119 q 485 243 440 119 l 518 543 q 440 560 478 560 z "},"รก":{"ha":761,"x_min":42,"x_max":907,"o":"m 371 764 l 547 1024 q 613 970 575 1010 q 674 897 650 931 l 424 713 q 371 764 407 722 m 664 -7 q 494 82 536 -7 q 309 -8 422 -8 q 119 68 196 -8 q 42 269 42 144 q 149 560 42 451 q 419 668 256 668 q 428 668 424 668 q 556 644 497 668 q 647 668 593 668 q 724 654 700 668 q 697 452 711 551 q 678 311 683 353 q 665 175 665 217 q 710 119 665 119 q 783 166 744 119 q 851 313 822 213 q 907 232 892 276 q 799 47 867 100 q 664 -7 731 -7 m 440 560 q 299 492 351 560 q 238 292 247 425 q 236 268 236 279 q 269 160 236 200 q 353 119 301 119 q 485 243 440 119 l 518 543 q 440 560 478 560 z "},"รข":{"ha":761,"x_min":42,"x_max":907,"o":"m 467 972 l 708 804 q 663 724 679 750 l 467 825 l 271 724 q 225 804 254 750 l 467 972 m 664 -7 q 494 82 536 -7 q 309 -8 422 -8 q 119 68 196 -8 q 42 269 42 144 q 149 560 42 451 q 419 668 256 668 q 428 668 424 668 q 556 644 497 668 q 647 668 593 668 q 724 654 700 668 q 697 452 711 551 q 678 311 683 353 q 665 175 665 217 q 710 119 665 119 q 783 166 744 119 q 851 313 822 213 q 907 232 892 276 q 799 47 867 100 q 664 -7 731 -7 m 440 560 q 299 492 351 560 q 238 292 247 425 q 236 268 236 279 q 269 160 236 200 q 353 119 301 119 q 485 243 440 119 l 518 543 q 440 560 478 560 z "},"รฃ":{"ha":761,"x_min":42,"x_max":907,"o":"m 781 933 q 720 785 768 843 q 607 728 672 728 q 469 779 542 728 q 363 832 393 832 q 310 815 332 832 q 265 750 288 797 l 204 786 q 267 919 222 867 q 375 971 311 971 q 508 922 432 971 q 617 874 585 874 q 719 968 681 874 l 781 933 m 664 -7 q 494 82 536 -7 q 309 -8 422 -8 q 119 68 196 -8 q 42 269 42 144 q 149 560 42 451 q 419 668 256 668 q 428 668 424 668 q 556 644 497 668 q 647 668 593 668 q 724 654 700 668 q 697 452 711 551 q 678 311 683 353 q 665 175 665 217 q 710 119 665 119 q 783 166 744 119 q 851 313 822 213 q 907 232 892 276 q 799 47 867 100 q 664 -7 731 -7 m 440 560 q 299 492 351 560 q 238 292 247 425 q 236 268 236 279 q 269 160 236 200 q 353 119 301 119 q 485 243 440 119 l 518 543 q 440 560 478 560 z "},"รค":{"ha":761,"x_min":42,"x_max":907,"o":"m 396 839 q 396 818 396 839 q 367 768 396 797 q 296 739 338 739 q 226 768 254 739 q 197 839 197 797 q 226 910 197 881 q 296 940 254 940 q 367 910 338 940 q 396 839 396 881 m 731 839 q 731 818 731 839 q 702 768 731 797 q 631 739 674 739 q 559 768 589 739 q 529 839 529 797 q 559 910 529 881 q 631 940 589 940 q 701 910 672 940 q 731 839 731 881 m 664 -7 q 494 82 536 -7 q 309 -8 422 -8 q 119 68 196 -8 q 42 269 42 144 q 149 560 42 451 q 419 668 256 668 q 428 668 424 668 q 556 644 497 668 q 647 668 593 668 q 724 654 700 668 q 697 452 711 551 q 678 311 683 353 q 665 175 665 217 q 710 119 665 119 q 783 166 744 119 q 851 313 822 213 q 907 232 892 276 q 799 47 867 100 q 664 -7 731 -7 m 440 560 q 299 492 351 560 q 238 292 247 425 q 236 268 236 279 q 269 160 236 200 q 353 119 301 119 q 485 243 440 119 l 518 543 q 440 560 478 560 z "},"รฅ":{"ha":761,"x_min":42,"x_max":907,"o":"m 524 654 l 556 644 q 647 668 593 668 q 724 654 700 668 q 697 452 711 551 q 678 311 683 353 q 665 175 665 217 q 710 119 665 119 q 783 166 744 119 q 851 313 822 213 q 907 232 892 276 q 799 47 867 100 q 664 -7 731 -7 q 494 82 536 -7 q 309 -8 422 -8 q 119 68 196 -8 q 42 269 42 144 q 128 536 42 431 q 356 664 214 642 q 300 774 300 708 q 343 881 300 839 q 446 924 386 924 q 549 881 506 924 q 592 778 592 839 q 524 654 592 697 m 494 826 q 484 836 494 826 q 446 846 474 846 q 398 826 418 846 q 378 778 378 806 q 398 730 378 750 q 446 710 418 710 q 494 730 474 710 q 514 778 514 750 q 494 826 514 806 m 440 560 q 299 492 351 560 q 238 292 247 425 q 236 268 236 279 q 269 160 236 200 q 353 119 301 119 q 485 243 440 119 l 518 543 q 440 560 478 560 z "},"รฆ":{"ha":1408,"x_min":56,"x_max":1278,"o":"m 775 311 q 903 381 861 329 q 946 480 946 432 q 920 545 946 528 q 864 563 894 563 q 749 490 799 563 q 700 316 700 417 q 748 166 700 215 q 867 117 796 117 q 1067 189 971 117 q 1222 378 1163 261 q 1278 306 1253 349 q 1114 101 1232 201 q 977 22 1057 53 q 813 -8 897 -8 q 546 142 626 -8 q 313 -8 469 -8 q 133 68 210 -8 q 56 269 56 144 q 163 560 56 451 q 433 668 269 668 q 442 668 438 668 q 569 644 511 668 q 660 668 607 668 q 738 654 714 668 l 736 642 q 872 668 804 668 q 1046 622 979 668 q 1114 496 1113 575 q 1028 322 1114 389 q 794 229 943 256 l 775 311 m 454 560 q 313 492 365 560 q 251 292 261 425 q 250 268 250 279 q 283 160 250 200 q 367 119 315 119 q 499 243 454 119 l 507 315 q 513 372 507 336 l 532 543 q 454 560 492 560 z "},"รง":{"ha":651,"x_min":50,"x_max":819,"o":"m 481 471 q 400 561 481 561 q 293 493 340 561 q 243 321 243 419 q 287 169 243 222 q 407 115 331 115 q 601 190 499 115 q 765 376 703 265 q 819 300 793 356 q 681 128 785 228 q 548 40 626 78 q 386 -7 469 1 l 371 -46 l 379 -44 q 472 -78 431 -44 q 513 -175 513 -111 q 465 -279 513 -239 q 356 -319 417 -319 q 210 -253 257 -319 l 235 -200 q 278 -237 247 -219 q 340 -256 310 -256 q 391 -233 371 -256 q 411 -174 411 -210 q 384 -118 411 -139 q 318 -97 357 -97 q 272 -99 279 -97 l 307 -7 q 122 90 194 7 q 50 297 50 174 q 161 565 50 463 q 410 668 272 668 q 579 624 517 668 q 642 507 642 579 q 608 425 642 460 q 460 364 547 364 q 481 471 481 433 z "},"รจ":{"ha":647,"x_min":35,"x_max":807,"o":"m 368 1024 l 544 764 q 492 713 508 722 l 242 897 q 303 970 265 931 q 368 1024 340 1010 m 304 311 q 433 381 390 329 q 475 480 475 432 q 449 545 475 528 q 393 563 424 563 q 278 490 328 563 q 229 316 229 417 q 277 166 229 215 q 396 117 325 117 q 596 189 500 117 q 751 378 692 261 q 807 306 782 349 q 644 101 761 201 q 506 22 586 53 q 342 -8 426 -8 q 122 76 203 -8 q 36 311 36 168 q 144 561 36 454 q 401 668 251 668 q 575 622 508 668 q 643 496 642 575 q 558 322 643 389 q 324 229 472 256 l 304 311 z "},"รฉ":{"ha":647,"x_min":35,"x_max":807,"o":"m 314 764 l 490 1024 q 556 970 518 1010 q 617 897 593 931 l 367 713 q 314 764 350 722 m 304 311 q 433 381 390 329 q 475 480 475 432 q 449 545 475 528 q 393 563 424 563 q 278 490 328 563 q 229 316 229 417 q 277 166 229 215 q 396 117 325 117 q 596 189 500 117 q 751 378 692 261 q 807 306 782 349 q 644 101 761 201 q 506 22 586 53 q 342 -8 426 -8 q 122 76 203 -8 q 36 311 36 168 q 144 561 36 454 q 401 668 251 668 q 575 622 508 668 q 643 496 642 575 q 558 322 643 389 q 324 229 472 256 l 304 311 z "},"รช":{"ha":647,"x_min":35,"x_max":807,"o":"m 410 972 l 651 804 q 606 724 622 750 l 410 825 l 214 724 q 168 804 197 750 l 410 972 m 304 311 q 433 381 390 329 q 475 480 475 432 q 449 545 475 528 q 393 563 424 563 q 278 490 328 563 q 229 316 229 417 q 277 166 229 215 q 396 117 325 117 q 596 189 500 117 q 751 378 692 261 q 807 306 782 349 q 644 101 761 201 q 506 22 586 53 q 342 -8 426 -8 q 122 76 203 -8 q 36 311 36 168 q 144 561 36 454 q 401 668 251 668 q 575 622 508 668 q 643 496 642 575 q 558 322 643 389 q 324 229 472 256 l 304 311 z "},"รซ":{"ha":647,"x_min":35,"x_max":807,"o":"m 140 839 q 140 860 140 839 q 169 910 140 881 q 239 940 197 940 q 310 910 281 940 q 339 839 339 881 q 310 768 339 797 q 239 739 281 739 q 169 768 197 739 q 140 839 140 797 m 502 910 q 517 925 502 910 q 574 940 532 940 q 644 910 615 940 q 674 839 674 881 q 645 768 674 797 q 574 739 617 739 q 502 768 532 739 q 472 839 472 797 q 502 910 472 881 m 304 311 q 433 381 390 329 q 475 480 475 432 q 449 545 475 528 q 393 563 424 563 q 278 490 328 563 q 229 316 229 417 q 277 166 229 215 q 396 117 325 117 q 596 189 500 117 q 751 378 692 261 q 807 306 782 349 q 644 101 761 201 q 506 22 586 53 q 342 -8 426 -8 q 122 76 203 -8 q 36 311 36 168 q 144 561 36 454 q 401 668 251 668 q 575 622 508 668 q 643 496 642 575 q 558 322 643 389 q 324 229 472 256 l 304 311 z "},"รฌ":{"ha":319,"x_min":36,"x_max":479,"o":"m 163 1024 l 339 764 q 286 713 303 722 l 36 897 q 97 970 60 931 q 163 1024 135 1010 m 93 615 q 146 653 107 640 q 223 667 185 667 q 290 657 261 667 q 236 235 236 239 q 229 188 229 207 q 231 156 229 169 q 283 119 238 119 q 366 178 328 119 q 424 313 404 238 q 454 279 433 307 q 479 238 475 251 q 386 58 451 126 q 225 -10 318 -10 q 87 36 132 -10 q 42 154 42 82 q 43 186 42 169 l 93 615 z "},"รญ":{"ha":319,"x_min":40,"x_max":479,"o":"m 108 764 l 285 1024 q 350 970 313 1010 q 411 897 388 931 l 161 713 q 108 764 144 722 m 93 615 q 146 653 107 640 q 223 667 185 667 q 290 657 261 667 q 236 235 236 239 q 229 188 229 207 q 231 156 229 169 q 283 119 238 119 q 366 178 328 119 q 424 313 404 238 q 454 279 433 307 q 479 238 475 251 q 386 58 451 126 q 225 -10 318 -10 q 87 36 132 -10 q 42 154 42 82 q 43 186 42 169 l 93 615 z "},"รฎ":{"ha":319,"x_min":-37,"x_max":479,"o":"m 204 972 l 446 804 q 400 724 417 750 l 204 825 l 8 724 q -37 804 -8 750 l 204 972 m 93 615 q 146 653 107 640 q 223 667 185 667 q 290 657 261 667 q 236 235 236 239 q 229 188 229 207 q 231 156 229 169 q 283 119 238 119 q 366 178 328 119 q 424 313 404 238 q 454 279 433 307 q 479 238 475 251 q 386 58 451 126 q 225 -10 318 -10 q 87 36 132 -10 q 42 154 42 82 q 43 186 42 169 l 93 615 z "},"รฏ":{"ha":319,"x_min":26,"x_max":479,"o":"m 26 889 q 26 908 26 889 q 53 953 26 926 q 118 981 81 981 q 182 953 156 981 q 208 889 208 926 q 182 824 208 851 q 118 797 156 797 q 53 824 81 797 q 26 889 26 851 m 283 889 q 283 908 283 889 q 310 953 283 926 q 374 981 336 981 q 439 953 413 981 q 465 889 465 926 q 439 824 465 851 q 374 797 413 797 q 310 824 336 797 q 283 889 283 851 m 93 615 q 146 653 107 640 q 223 667 185 667 q 290 657 261 667 q 236 235 236 239 q 229 188 229 207 q 231 156 229 169 q 283 119 238 119 q 366 178 328 119 q 424 313 404 238 q 454 279 433 307 q 479 238 475 251 q 386 58 451 126 q 225 -10 318 -10 q 87 36 132 -10 q 42 154 42 82 q 43 186 42 169 l 93 615 z "},"รฐ":{"ha":833,"x_min":42,"x_max":907,"o":"m 900 560 l 711 560 q 665 175 665 208 q 707 119 665 119 q 782 165 743 119 q 853 313 821 210 q 907 231 892 275 q 750 17 857 65 q 658 -7 701 -7 q 493 82 535 -7 q 308 -8 421 -8 q 119 68 196 -8 q 42 269 42 144 q 137 547 42 440 q 386 667 232 654 l 386 668 l 428 668 q 444 667 439 668 l 536 667 l 576 1001 q 620 1041 586 1025 q 702 1057 654 1057 q 774 1043 750 1057 l 725 667 l 900 667 l 900 560 m 440 560 q 299 492 351 560 q 238 292 247 425 q 236 268 236 279 q 269 160 236 200 q 353 119 301 119 q 485 243 440 119 l 521 542 q 440 560 475 560 z "},"รฑ":{"ha":721,"x_min":35,"x_max":867,"o":"m 324 971 q 355 971 324 971 q 461 922 385 971 q 569 874 538 874 q 672 968 633 874 l 733 933 q 673 785 721 843 q 560 728 625 728 q 422 779 494 728 q 315 832 346 832 q 263 815 285 832 q 218 750 240 797 l 157 786 q 219 919 175 867 q 324 971 264 971 m 442 156 l 475 465 q 456 528 475 503 q 391 553 436 553 q 315 513 346 553 q 275 414 283 474 q 222 0 225 33 l 35 0 l 111 654 q 200 669 169 669 q 297 601 293 669 q 460 668 365 668 q 610 621 556 668 q 664 501 664 574 q 656 428 664 482 q 624 182 624 217 q 667 118 624 118 q 810 315 761 118 q 867 236 857 265 q 611 -8 793 -8 q 483 44 525 -8 q 442 156 442 97 z "},"รฒ":{"ha":722,"x_min":28,"x_max":708,"o":"m 351 1024 l 528 764 q 475 713 492 722 l 225 897 q 286 970 249 931 q 351 1024 324 1010 m 410 668 q 623 586 538 668 q 708 386 708 504 q 603 99 708 207 q 350 -8 499 -8 q 115 76 201 -8 q 28 286 28 161 q 135 564 28 461 q 410 668 243 668 m 383 556 q 350 556 383 556 q 272 481 317 556 q 224 292 228 406 q 256 158 224 211 q 356 106 289 106 q 467 179 422 106 q 513 347 513 253 q 481 497 513 442 q 383 556 449 556 z "},"รณ":{"ha":722,"x_min":28,"x_max":708,"o":"m 297 764 l 474 1024 q 539 970 501 1010 q 600 897 576 931 l 350 713 q 297 764 333 722 m 410 668 q 623 586 538 668 q 708 386 708 504 q 603 99 708 207 q 350 -8 499 -8 q 115 76 201 -8 q 28 286 28 161 q 135 564 28 461 q 410 668 243 668 m 383 556 q 350 556 383 556 q 272 481 317 556 q 224 292 228 406 q 256 158 224 211 q 356 106 289 106 q 467 179 422 106 q 513 347 513 253 q 481 497 513 442 q 383 556 449 556 z "},"รด":{"ha":722,"x_min":28,"x_max":708,"o":"m 393 972 l 635 804 q 589 724 606 750 l 393 825 l 197 724 q 151 804 181 750 l 393 972 m 410 668 q 623 586 538 668 q 708 386 708 504 q 603 99 708 207 q 350 -8 499 -8 q 115 76 201 -8 q 28 286 28 161 q 135 564 28 461 q 410 668 243 668 m 383 556 q 350 556 383 556 q 272 481 317 556 q 224 292 228 406 q 256 158 224 211 q 356 106 289 106 q 467 179 422 106 q 513 347 513 253 q 481 497 513 442 q 383 556 449 556 z "},"รต":{"ha":722,"x_min":28,"x_max":708,"o":"m 298 971 q 328 971 298 971 q 435 922 358 971 q 543 874 511 874 q 646 968 607 874 l 707 933 q 647 785 694 843 q 533 728 599 728 q 394 779 468 728 q 289 832 319 832 q 236 815 258 832 q 192 750 214 797 l 131 786 q 193 919 149 867 q 298 971 238 971 m 410 668 q 623 586 538 668 q 708 386 708 504 q 603 99 708 207 q 350 -8 499 -8 q 115 76 201 -8 q 28 286 28 161 q 135 564 28 461 q 410 668 243 668 m 383 556 q 350 556 383 556 q 272 481 317 556 q 224 292 228 406 q 256 158 224 211 q 356 106 289 106 q 467 179 422 106 q 513 347 513 253 q 481 497 513 442 q 383 556 449 556 z "},"รถ":{"ha":722,"x_min":28,"x_max":708,"o":"m 124 839 q 124 860 124 839 q 152 910 124 881 q 222 940 181 940 q 293 910 264 940 q 322 839 322 881 q 293 768 322 797 q 222 739 264 739 q 152 768 181 739 q 124 839 124 797 m 485 910 q 500 925 485 910 q 557 940 515 940 q 628 910 599 940 q 657 839 657 881 q 628 768 657 797 q 558 739 600 739 q 485 768 515 739 q 456 839 456 797 q 485 910 456 881 m 410 668 q 623 586 538 668 q 708 386 708 504 q 603 99 708 207 q 350 -8 499 -8 q 115 76 201 -8 q 28 286 28 161 q 135 564 28 461 q 410 668 243 668 m 383 556 q 350 556 383 556 q 272 481 317 556 q 224 292 228 406 q 256 158 224 211 q 356 106 289 106 q 467 179 422 106 q 513 347 513 253 q 481 497 513 442 q 383 556 449 556 z "},"รท":{"ha":636,"x_min":18,"x_max":686,"o":"m 298 835 q 314 851 298 835 q 378 868 331 868 q 458 835 425 868 q 492 754 492 801 q 458 674 492 707 q 378 642 425 642 q 298 674 331 642 q 265 754 265 707 q 298 835 265 801 m 31 579 l 686 579 l 674 460 l 18 460 l 31 579 m 241 349 q 257 365 241 349 q 321 382 274 382 q 401 349 368 382 q 435 268 435 315 q 401 188 435 221 q 321 156 368 156 q 241 188 274 156 q 208 268 208 221 q 241 349 208 315 z "},"รธ":{"ha":722,"x_min":28,"x_max":708,"o":"m 708 386 q 603 99 708 207 q 342 -8 499 -8 l 322 -8 l 258 -222 l 143 -222 l 214 14 q 77 120 126 47 q 28 286 28 193 q 135 564 28 461 q 406 668 242 667 l 410 668 l 501 974 l 617 974 l 519 650 q 657 547 606 619 q 708 386 708 475 m 257 157 l 376 554 q 268 473 308 547 q 224 292 228 399 q 257 157 224 208 m 357 106 q 469 183 426 110 q 513 354 513 256 q 476 506 513 453 l 357 106 z "},"รน":{"ha":704,"x_min":42,"x_max":850,"o":"m 367 1031 l 543 771 q 490 719 507 729 l 240 904 q 301 978 264 939 q 367 1031 339 1017 m 665 654 q 608 175 608 204 q 649 119 608 119 q 727 169 685 119 q 794 317 769 218 q 850 239 840 267 q 749 49 818 104 q 606 -7 679 -7 q 443 86 485 -7 q 250 -7 371 -7 q 96 43 150 -7 q 42 174 42 93 q 49 242 42 193 q 97 653 81 500 q 176 668 140 668 q 231 665 213 668 q 265 644 249 663 q 282 593 282 626 l 236 239 q 233 208 233 222 q 308 126 233 126 q 424 194 378 126 q 426 243 424 210 l 472 613 q 514 652 482 636 q 594 668 546 668 q 665 654 642 668 z "},"รบ":{"ha":704,"x_min":42,"x_max":850,"o":"m 313 771 l 489 1031 q 554 978 517 1017 q 615 904 592 939 l 365 719 q 313 771 349 729 m 665 654 q 608 175 608 204 q 649 119 608 119 q 727 169 685 119 q 794 317 769 218 q 850 239 840 267 q 749 49 818 104 q 606 -7 679 -7 q 443 86 485 -7 q 250 -7 371 -7 q 96 43 150 -7 q 42 174 42 93 q 49 242 42 193 q 97 653 81 500 q 176 668 140 668 q 231 665 213 668 q 265 644 249 663 q 282 593 282 626 l 236 239 q 233 208 233 222 q 308 126 233 126 q 424 194 378 126 q 426 243 424 210 l 472 613 q 514 652 482 636 q 594 668 546 668 q 665 654 642 668 z "},"รป":{"ha":704,"x_min":42,"x_max":850,"o":"m 408 979 l 650 811 q 604 731 621 757 l 408 832 l 213 731 q 167 811 196 757 l 408 979 m 665 654 q 608 175 608 204 q 649 119 608 119 q 727 169 685 119 q 794 317 769 218 q 850 239 840 267 q 749 49 818 104 q 606 -7 679 -7 q 443 86 485 -7 q 250 -7 371 -7 q 96 43 150 -7 q 42 174 42 93 q 49 242 42 193 q 97 653 81 500 q 176 668 140 668 q 231 665 213 668 q 265 644 249 663 q 282 593 282 626 l 236 239 q 233 208 233 222 q 308 126 233 126 q 424 194 378 126 q 426 243 424 210 l 472 613 q 514 652 482 636 q 594 668 546 668 q 665 654 642 668 z "},"รผ":{"ha":704,"x_min":42,"x_max":850,"o":"m 139 846 q 139 867 139 846 q 167 917 139 888 q 238 947 196 947 q 308 917 279 947 q 338 846 338 888 q 308 775 338 804 q 238 746 279 746 q 167 775 196 746 q 139 846 139 804 m 501 917 q 516 932 501 917 q 572 947 531 947 q 643 917 614 947 q 672 846 672 888 q 644 775 672 804 q 573 746 615 746 q 501 775 531 746 q 471 846 471 804 q 501 917 471 888 m 665 654 q 608 175 608 204 q 649 119 608 119 q 727 169 685 119 q 794 317 769 218 q 850 239 840 267 q 749 49 818 104 q 606 -7 679 -7 q 443 86 485 -7 q 250 -7 371 -7 q 96 43 150 -7 q 42 174 42 93 q 49 242 42 193 q 97 653 81 500 q 176 668 140 668 q 231 665 213 668 q 265 644 249 663 q 282 593 282 626 l 236 239 q 233 208 233 222 q 308 126 233 126 q 424 194 378 126 q 426 243 424 210 l 472 613 q 514 652 482 636 q 594 668 546 668 q 665 654 642 668 z "},"รฝ":{"ha":675,"x_min":28,"x_max":779,"o":"m 286 764 l 463 1024 q 528 970 490 1010 q 589 897 565 931 l 339 713 q 286 764 322 722 m 285 -412 q 149 -365 206 -412 q 92 -225 92 -317 q 206 -6 92 -112 q 76 47 125 1 q 28 176 28 93 q 38 293 28 215 q 58 461 47 371 q 82 653 69 551 q 161 668 125 668 q 215 665 197 668 q 250 644 233 663 q 267 593 267 626 l 221 239 q 218 208 218 217 q 293 126 218 126 q 404 190 361 126 q 425 374 408 222 q 453 611 442 526 q 505 653 465 638 q 569 668 544 668 q 650 657 614 668 l 585 144 q 779 -79 747 115 q 726 -162 774 -106 q 574 49 699 11 l 551 -125 q 472 -331 536 -250 q 285 -412 408 -412 m 200 -199 q 222 -267 200 -244 q 281 -289 244 -289 q 338 -258 318 -289 q 368 -136 357 -228 l 386 17 q 200 -199 204 -78 z "},"รพ":{"ha":833,"x_min":-18,"x_max":699,"o":"m 453 669 q 503 669 453 669 q 625 588 553 669 q 697 396 697 506 q 696 364 697 381 q 574 87 681 182 q 294 -8 467 -8 q 208 4 246 -6 l 164 -381 l -18 -381 l 51 215 q 68 369 56 275 l 103 658 q 121 819 110 719 q 147 1046 144 1028 q 225 1057 176 1057 q 336 993 336 1057 l 289 624 q 453 669 354 669 m 238 191 q 238 175 238 191 q 262 137 238 158 q 329 115 286 115 q 446 181 400 115 q 501 386 501 260 q 474 494 501 447 q 388 542 446 542 q 267 449 307 542 l 260 401 l 256 364 q 238 191 238 224 z "},"รฟ":{"ha":675,"x_min":28,"x_max":779,"o":"m 113 839 q 113 860 113 839 q 141 910 113 881 q 211 940 169 940 q 282 910 253 940 q 311 839 311 881 q 282 768 311 797 q 211 739 253 739 q 141 768 169 739 q 113 839 113 797 m 474 910 q 489 925 474 910 q 546 940 504 940 q 617 910 588 940 q 646 839 646 881 q 617 768 646 797 q 547 739 589 739 q 474 768 504 739 q 444 839 444 797 q 474 910 444 881 m 285 -412 q 149 -365 206 -412 q 92 -225 92 -317 q 206 -6 92 -112 q 76 47 125 1 q 28 176 28 93 q 38 293 28 215 q 58 461 47 371 q 82 653 69 551 q 161 668 125 668 q 215 665 197 668 q 250 644 233 663 q 267 593 267 626 l 221 239 q 218 208 218 217 q 293 126 218 126 q 404 190 361 126 q 425 374 408 222 q 453 611 442 526 q 505 653 465 638 q 569 668 544 668 q 650 657 614 668 l 585 144 q 779 -79 747 115 q 726 -162 774 -106 q 574 49 699 11 l 551 -125 q 472 -331 536 -250 q 285 -412 408 -412 m 200 -199 q 222 -267 200 -244 q 281 -289 244 -289 q 338 -258 318 -289 q 368 -136 357 -228 l 386 17 q 200 -199 204 -78 z "},"ฤฑ":{"ha":319,"x_min":40,"x_max":479,"o":"m 93 615 q 146 653 107 640 q 223 667 185 667 q 290 657 261 667 q 236 235 236 239 q 229 188 229 207 q 231 156 229 169 q 283 119 238 119 q 366 178 328 119 q 424 313 404 238 q 454 279 433 307 q 479 238 475 251 q 386 58 451 126 q 225 -10 318 -10 q 87 36 132 -10 q 42 154 42 82 q 43 186 42 169 l 93 615 z "},"ล":{"ha":833,"x_min":0,"x_max":790,"o":"m 538 121 q 572 115 553 115 q 608 119 590 115 q 640 140 625 124 q 663 165 654 156 q 683 208 671 175 q 721 318 699 247 q 790 236 779 264 q 556 -8 724 -8 q 354 94 476 -8 q 156 -8 290 -8 q 48 32 96 -8 q 0 147 0 72 q 50 270 0 222 q 179 318 100 318 q 222 315 194 318 l 242 492 q 53 442 181 472 l 53 546 q 253 599 157 569 l 281 825 q 517 1057 310 1057 q 648 1012 599 1057 q 697 885 697 967 q 546 626 697 732 l 707 626 l 707 519 l 436 519 l 401 239 l 400 225 q 538 121 503 133 m 593 874 q 544 932 593 932 q 471 794 486 932 l 457 685 q 593 874 593 765 m 106 157 q 153 115 106 115 q 210 197 199 115 q 160 208 183 208 q 122 193 138 208 q 106 157 106 178 z "},"ล":{"ha":463,"x_min":-17,"x_max":583,"o":"m 504 888 q 386 599 504 742 l 510 599 l 510 492 l 283 492 l 269 479 q 256 347 263 411 q 238 189 238 204 q 300 117 238 117 q 427 195 368 117 q 518 396 486 274 q 553 373 531 392 q 583 340 575 354 q 483 119 561 225 q 385 31 444 65 q 231 -10 317 -10 q 97 38 146 -10 q 49 169 49 86 q 83 492 49 214 l -15 492 q -17 537 -17 506 q -4 599 -17 568 l 96 599 q 122 815 115 754 q 139 909 129 875 q 169 981 149 943 q 321 1057 211 1057 q 504 888 504 1057 m 285 618 q 413 869 413 758 q 363 936 413 936 q 320 894 331 933 q 301 768 310 856 q 289 660 292 681 l 285 618 z "},"ล":{"ha":1706,"x_min":111,"x_max":1761,"o":"m 1179 485 q 1099 315 1099 428 q 1149 182 1099 244 q 1321 119 1200 119 q 1550 201 1442 119 q 1714 381 1658 283 l 1761 296 q 1263 -8 1582 -8 q 999 74 1108 -8 q 885 268 890 156 q 723 67 826 142 q 481 -8 619 -8 q 206 108 301 -8 q 111 413 111 225 q 149 651 111 535 q 252 857 186 767 q 418 1002 318 947 q 627 1057 518 1057 q 806 1008 736 1057 q 876 876 876 958 q 822 744 876 794 q 867 753 846 753 q 915 749 888 753 q 953 736 942 744 q 908 717 924 735 q 892 668 892 699 q 919 611 892 638 q 1029 575 958 575 l 1058 576 q 1004 742 1004 649 q 1116 964 1004 871 q 1375 1057 1228 1057 q 1602 982 1522 1057 q 1682 785 1682 907 l 1550 785 q 1510 898 1551 860 q 1397 936 1469 936 q 1265 883 1324 936 q 1200 750 1200 826 q 1242 618 1200 674 q 1453 600 1381 635 q 1497 534 1497 579 q 1447 471 1497 489 q 1325 453 1396 453 q 1179 485 1254 453 m 506 121 q 703 247 625 121 q 794 536 782 374 q 750 631 750 578 q 781 717 750 682 q 703 700 747 700 q 625 722 658 700 q 592 790 592 743 q 603 829 592 813 q 625 850 614 846 l 638 856 q 682 800 638 800 q 718 815 703 800 q 735 847 733 829 q 733 876 736 865 q 722 900 731 886 q 640 935 703 935 q 485 857 558 935 q 367 657 411 779 q 324 407 324 535 q 358 217 324 300 q 415 147 378 172 q 506 121 453 121 m 943 474 l 943 469 l 944 472 l 943 474 z "},"ล":{"ha":1125,"x_min":28,"x_max":1285,"o":"m 782 311 q 910 381 868 329 q 953 480 953 432 q 927 545 953 528 q 871 563 901 563 q 756 490 806 563 q 707 316 707 417 q 755 166 707 215 q 874 117 803 117 q 1074 189 978 117 q 1229 378 1169 261 q 1285 306 1260 349 q 1122 101 1239 201 q 984 22 1064 53 q 819 -8 904 -8 q 590 88 675 -8 q 346 -8 490 -8 q 115 76 201 -8 q 28 286 28 161 q 135 564 28 461 q 410 668 243 668 q 635 574 547 668 q 879 668 740 668 q 1053 622 986 668 q 1121 496 1119 575 q 1035 322 1121 389 q 801 229 950 256 l 782 311 m 224 292 q 256 158 224 211 q 356 106 289 106 q 467 179 422 106 q 513 347 513 253 q 481 497 513 442 q 383 556 449 556 q 272 481 317 556 q 224 292 228 406 z "},"ล":{"ha":678,"x_min":56,"x_max":728,"o":"m 264 1361 l 375 1361 l 496 1246 l 617 1361 l 728 1361 l 563 1142 l 415 1142 l 264 1361 m 581 700 q 622 817 622 763 q 592 903 622 871 q 511 935 561 935 q 431 910 461 935 q 400 834 400 886 q 472 647 400 782 q 564 474 544 513 q 617 269 617 368 q 527 69 617 146 q 316 -8 438 -8 q 125 67 194 -8 q 56 244 56 143 q 288 554 56 432 q 193 814 193 740 q 276 988 193 917 q 478 1060 358 1060 q 663 999 599 1060 q 726 843 726 938 q 685 700 726 781 l 581 700 m 217 158 q 308 118 254 118 q 391 149 361 118 q 421 242 421 181 q 378 378 421 297 q 357 419 372 389 q 335 461 342 449 q 179 258 179 381 q 217 158 179 196 z "},"ลก":{"ha":715,"x_min":-64,"x_max":735,"o":"m 107 1021 l 218 1021 l 339 906 l 460 1021 l 571 1021 l 406 801 l 258 801 l 107 1021 m 625 425 q 735 235 735 344 q 649 58 735 125 q 432 -8 563 -8 q 291 34 347 -8 q 235 139 235 76 q 276 238 235 201 q 381 283 318 275 q 351 203 351 242 q 378 142 351 165 q 444 118 404 118 q 511 148 485 118 q 538 217 538 178 q 478 331 538 281 q 400 385 442 360 q 356 413 358 411 q 344 419 350 417 q 272 340 319 390 q 197 258 225 289 q 110 117 119 174 q 107 74 107 106 q 126 10 107 43 q 171 -40 144 -24 q 223 -67 197 -57 q 267 -82 249 -78 q 286 -87 286 -86 q 256 -110 286 -97 q 137 -131 199 -131 q 17 -86 75 -131 q -62 76 -62 -25 q -31 200 -62 139 q 236 497 26 308 q 185 607 185 549 q 228 706 185 665 q 332 746 272 746 q 426 703 386 746 q 453 629 453 674 q 424 529 453 585 q 625 425 572 463 m 324 582 q 357 632 357 617 q 326 669 357 667 q 292 631 292 669 q 324 582 292 607 z "},"ลธ":{"ha":894,"x_min":35,"x_max":1033,"o":"m 292 1228 q 292 1249 292 1228 q 320 1299 292 1269 q 390 1329 349 1329 q 461 1299 432 1329 q 490 1228 490 1269 q 461 1157 490 1186 q 390 1128 432 1128 q 320 1157 349 1128 q 292 1228 292 1186 m 653 1299 q 668 1314 653 1299 q 725 1329 683 1329 q 796 1299 767 1329 q 825 1228 825 1269 q 797 1157 825 1186 q 726 1128 768 1128 q 653 1157 683 1128 q 624 1228 624 1186 q 653 1299 624 1269 m 435 893 l 433 869 q 394 547 429 804 q 351 225 351 239 q 378 155 351 183 q 448 126 404 126 q 528 156 492 126 q 585 228 565 186 l 663 938 q 715 1030 669 1001 q 810 1058 760 1058 q 879 1044 843 1058 l 786 275 q 1013 375 969 360 l 1033 278 q 774 163 911 228 l 739 -121 q 702 -249 731 -196 q 633 -331 674 -303 q 473 -381 560 -381 q 328 -317 386 -381 q 271 -165 271 -254 q 329 -4 271 -76 q 207 60 256 8 q 158 189 158 113 q 161 219 158 197 l 206 561 q 35 828 35 669 q 142 1031 35 975 q 256 1058 192 1058 q 378 1017 321 1058 q 435 893 435 976 m 204 946 q 149 914 171 946 q 128 838 128 882 q 219 678 128 740 l 246 878 q 218 944 246 935 q 204 946 213 946 m 376 -147 q 399 -218 376 -193 q 454 -243 422 -243 q 511 -220 486 -243 q 542 -156 536 -197 l 567 63 q 376 -147 376 -42 z "},"ลฝ":{"ha":743,"x_min":26,"x_max":819,"o":"m 242 1361 l 353 1361 l 474 1246 l 594 1361 l 706 1361 l 540 1142 l 393 1142 l 242 1361 m 633 337 q 675 337 633 337 q 769 292 718 338 q 819 176 819 246 q 767 53 819 107 q 607 0 714 0 l 40 0 q 26 74 26 35 q 56 151 26 113 l 538 892 l 490 892 q 383 769 453 818 q 228 720 314 721 q 92 765 143 719 q 42 881 42 811 q 94 1003 42 950 q 254 1057 147 1057 l 807 1057 q 814 1010 814 1033 q 788 931 814 967 l 292 165 l 371 165 q 478 288 408 239 q 633 337 547 336 m 253 892 q 163 849 163 892 q 247 806 163 806 q 393 892 332 806 l 253 892 m 608 165 q 699 208 699 165 q 614 251 699 251 q 468 165 529 251 l 608 165 z "},"ลพ":{"ha":607,"x_min":28,"x_max":596,"o":"m 118 972 l 229 972 l 350 857 l 471 972 l 582 972 l 417 753 l 269 753 l 118 972 m 432 -12 l 46 -4 q 28 45 28 -4 q 49 122 28 94 q 164 285 69 178 q 278 410 194 319 q 388 533 361 500 l 314 538 q 253 456 293 488 q 165 425 214 425 q 75 458 110 425 q 40 549 40 490 q 81 642 40 607 q 192 676 121 676 l 578 668 q 596 621 596 668 q 578 546 596 572 q 530 481 561 515 q 439 391 499 447 q 356 311 379 335 q 217 132 263 218 l 310 126 q 370 208 331 176 q 458 239 410 239 q 549 206 514 239 q 583 115 583 174 q 543 22 583 57 q 432 -12 503 -12 m 181 547 q 132 515 132 547 q 168 483 132 483 q 254 542 222 483 l 197 546 q 181 547 189 547 m 443 117 q 492 149 492 117 q 456 181 492 181 q 369 122 401 181 l 426 118 q 443 117 435 117 z "},"ฦ":{"ha":833,"x_min":114,"x_max":801,"o":"m 696 829 q 675 906 696 878 q 603 936 650 936 q 532 899 556 936 q 501 796 508 863 l 479 615 l 732 615 l 714 504 l 467 504 l 360 -381 l 171 -381 q 279 504 183 -299 l 114 504 l 131 615 l 293 615 l 318 825 q 593 1057 347 1057 q 745 999 689 1057 q 801 847 801 942 q 797 788 801 819 l 693 788 q 696 829 696 818 z "},"ห":{"ha":833,"x_min":161,"x_max":644,"o":"m 403 972 l 644 804 q 599 724 615 750 l 403 825 l 207 724 q 161 804 190 750 l 403 972 z "},"ห":{"ha":833,"x_min":201,"x_max":665,"o":"m 201 972 l 313 972 l 433 857 l 554 972 l 665 972 l 500 753 l 353 753 l 201 972 z "},"ห":{"ha":833,"x_min":206,"x_max":676,"o":"m 676 972 q 597 793 667 854 q 422 732 526 732 q 254 801 317 732 q 206 928 206 856 q 210 972 206 950 l 289 972 q 288 954 288 964 q 325 872 288 906 q 431 839 363 839 q 543 874 500 839 q 597 972 586 910 l 676 972 z "},"ห":{"ha":833,"x_min":344,"x_max":486,"o":"m 344 875 l 486 875 l 486 733 l 344 733 l 344 875 z "},"ห":{"ha":833,"x_min":261,"x_max":553,"o":"m 304 937 q 326 958 304 937 q 407 979 347 979 q 510 937 467 979 q 553 833 553 894 q 510 730 553 772 q 407 688 467 688 q 304 730 347 688 q 261 833 261 772 q 304 937 261 894 m 455 881 q 445 891 455 881 q 407 901 435 901 q 359 881 379 901 q 339 833 339 861 q 359 785 339 806 q 407 765 379 765 q 455 785 435 765 q 475 833 475 806 q 455 881 475 861 z "},"ห":{"ha":833,"x_min":260,"x_max":561,"o":"m 561 -301 q 433 -346 508 -346 q 309 -301 357 -346 q 261 -182 261 -257 q 301 -58 261 -110 q 400 13 340 -7 l 532 13 q 435 -40 488 13 q 382 -157 382 -92 q 463 -260 382 -251 q 489 -260 469 -260 q 542 -242 508 -260 l 561 -301 z "},"ห":{"ha":590,"x_min":56,"x_max":632,"o":"m 223 971 q 253 971 223 971 q 360 922 283 971 q 468 874 436 874 q 571 968 532 874 l 632 933 q 572 785 619 843 q 458 728 524 728 q 319 779 393 728 q 214 832 244 832 q 161 815 183 832 q 117 750 139 797 l 56 786 q 118 919 74 867 q 223 971 163 971 z "},"ห":{"ha":833,"x_min":126,"x_max":668,"o":"m 289 1058 l 429 1058 l 235 836 l 126 836 l 289 1058 m 528 1058 l 668 1058 l 446 836 l 324 836 l 528 1058 z "},"ฮผ":{"ha":925,"x_min":69,"x_max":942,"o":"m 757 654 q 700 175 700 204 q 740 119 700 119 q 819 169 776 119 q 886 317 861 218 q 942 239 932 267 q 840 49 910 104 q 697 -7 771 -7 q 535 86 576 -7 q 342 -7 463 -7 q 296 -4 324 -7 l 251 -381 l 69 -381 l 135 175 q 136 210 135 197 l 178 557 l 189 658 q 255 669 218 669 q 303 667 292 669 q 354 649 336 664 q 376 606 376 633 l 376 597 l 369 550 q 325 208 325 229 q 400 126 325 126 q 515 194 469 126 q 518 243 515 210 l 564 613 q 606 652 574 636 q 685 668 638 668 q 757 654 733 668 z "},"ฯ":{"ha":1272,"x_min":69,"x_max":1204,"o":"m 282 1057 l 1196 1057 q 1204 1003 1204 1032 q 1185 942 1204 974 q 1099 892 1153 892 l 963 892 l 846 0 l 657 0 l 761 892 l 625 892 l 539 238 q 308 -8 506 -8 q 199 34 238 -8 q 160 143 160 76 q 369 411 160 292 l 411 769 q 256 720 342 721 q 120 765 171 719 q 69 881 69 811 q 122 1003 69 950 q 282 1057 175 1057 m 281 892 q 190 849 190 892 q 275 806 190 806 q 421 892 360 806 l 281 892 m 257 164 q 297 119 257 119 q 326 133 319 119 q 337 155 333 146 q 343 179 340 164 q 347 206 346 194 q 350 238 349 218 q 353 268 351 257 l 356 288 q 257 164 257 219 z "},"โ":{"ha":833,"x_min":125,"x_max":708,"o":"m 139 554 l 708 554 l 693 435 l 125 435 l 139 554 z "},"โ":{"ha":833,"x_min":-125,"x_max":972,"o":"m -111 554 l 972 554 l 957 435 l -125 435 l -111 554 z "},"โ":{"ha":339,"x_min":42,"x_max":297,"o":"m 222 1097 q 233 1099 225 1099 q 267 1090 242 1099 q 297 1076 292 1082 q 183 932 232 1001 q 249 894 222 925 q 275 819 275 863 q 242 742 275 775 q 161 708 210 708 q 77 739 113 708 q 42 830 42 769 q 103 970 42 890 q 222 1097 164 1050 z "},"โ":{"ha":346,"x_min":42,"x_max":297,"o":"m 64 988 q 64 1010 64 988 q 97 1065 64 1032 q 178 1099 129 1099 q 262 1068 226 1099 q 297 977 297 1038 q 236 837 297 917 q 117 710 175 757 q 106 708 114 708 q 72 717 97 708 q 42 731 47 725 q 156 875 107 806 q 90 913 117 882 q 64 988 64 944 z "},"โ":{"ha":249,"x_min":3,"x_max":258,"o":"m 25 103 q 25 125 25 103 q 58 181 25 147 q 139 214 90 214 q 223 183 188 214 q 258 92 258 153 q 197 -48 258 32 q 78 -175 136 -128 q 67 -176 75 -176 q 33 -168 58 -176 q 3 -154 8 -160 q 117 -10 68 -79 q 51 28 78 -3 q 25 103 25 60 z "},"โ":{"ha":600,"x_min":42,"x_max":558,"o":"m 224 1122 q 235 1124 226 1124 q 268 1115 243 1124 q 300 1101 293 1107 q 186 958 247 1042 q 251 918 225 949 q 278 844 278 888 q 245 767 278 800 q 169 733 213 733 q 165 733 167 733 q 77 764 113 733 q 42 856 42 794 q 105 996 43 917 q 224 1122 167 1075 m 485 1122 q 495 1124 488 1124 q 529 1115 503 1124 q 558 1101 556 1106 q 447 958 489 1021 q 512 919 486 949 q 538 844 538 889 q 506 766 538 799 q 429 733 474 733 q 425 733 426 733 q 338 764 374 733 q 303 845 303 794 q 342 958 303 896 q 485 1122 401 1053 z "},"โ":{"ha":600,"x_min":42,"x_max":558,"o":"m 64 988 q 64 1010 64 988 q 97 1065 64 1032 q 178 1099 129 1099 q 262 1068 226 1099 q 297 977 297 1038 q 236 837 297 917 q 117 710 175 757 q 106 708 114 708 q 72 717 97 708 q 42 731 47 725 q 156 875 107 806 q 90 913 117 882 q 64 988 64 944 m 325 988 q 325 1010 325 988 q 358 1065 325 1032 q 439 1099 390 1099 q 523 1068 488 1099 q 558 977 558 1038 q 497 837 558 917 q 378 710 436 757 q 367 708 375 708 q 333 717 358 708 q 303 731 308 725 q 417 875 368 806 q 351 913 378 882 q 325 988 325 944 z "},"โ":{"ha":600,"x_min":42,"x_max":558,"o":"m 64 113 q 64 135 64 113 q 97 190 64 157 q 178 224 129 224 q 262 193 226 224 q 297 102 297 163 q 236 -38 297 42 q 117 -165 175 -118 q 106 -167 114 -167 q 72 -158 97 -167 q 42 -144 47 -150 q 156 0 107 -69 q 90 38 117 7 q 64 113 64 69 m 325 113 q 325 135 325 113 q 358 190 325 157 q 439 224 390 224 q 523 193 488 224 q 558 102 558 163 q 497 -38 558 42 q 378 -165 436 -118 q 367 -167 375 -167 q 333 -158 358 -167 q 303 -144 308 -150 q 417 0 368 -69 q 351 38 378 7 q 325 113 325 69 z "},"โ":{"ha":833,"x_min":72,"x_max":686,"o":"m 364 -137 l 249 -137 l 329 572 l 72 549 l 89 668 l 338 644 l 383 1057 l 499 1057 l 453 647 l 686 668 l 671 549 l 443 569 l 364 -137 z "},"โก":{"ha":833,"x_min":42,"x_max":686,"o":"m 656 368 l 640 249 l 410 269 l 364 -137 l 249 -137 l 294 272 l 42 249 l 58 368 l 303 344 l 329 572 l 72 549 l 89 668 l 338 644 l 383 1057 l 499 1057 l 453 647 l 686 668 l 671 549 l 443 569 l 418 346 l 656 368 z "},"โข":{"ha":833,"x_min":250,"x_max":542,"o":"m 293 626 q 315 647 293 626 q 396 668 336 668 q 499 626 456 668 q 542 522 542 583 q 499 419 542 461 q 396 376 456 376 q 293 419 336 376 q 250 522 250 461 q 293 626 250 583 z "},"โฆ":{"ha":972,"x_min":83,"x_max":932,"o":"m 116 167 q 132 183 116 167 q 196 200 149 200 q 276 167 243 200 q 310 86 310 133 q 276 6 310 39 q 196 -26 243 -26 q 116 6 149 -26 q 83 86 83 39 q 116 167 83 133 m 427 167 q 443 183 427 167 q 507 200 460 200 q 588 167 554 200 q 621 86 621 133 q 588 6 621 39 q 507 -26 554 -26 q 427 6 460 -26 q 394 86 394 39 q 427 167 394 133 m 738 167 q 755 183 738 167 q 818 200 771 200 q 899 167 865 200 q 932 86 932 133 q 899 6 932 39 q 818 -26 865 -26 q 738 6 771 -26 q 706 86 706 39 q 738 167 706 133 z "},"โฐ":{"ha":1767,"x_min":49,"x_max":1718,"o":"m 49 703 l 50 736 q 138 972 65 888 q 331 1057 211 1057 q 485 986 426 1057 q 544 779 544 915 l 543 733 q 455 512 526 597 q 279 426 383 426 q 106 504 164 426 q 49 703 49 582 m 910 1057 l 1025 1057 l 250 -139 l 135 -139 l 910 1057 m 178 717 q 176 683 176 708 q 179 631 176 658 q 189 572 182 604 q 276 504 206 504 q 367 569 329 504 q 415 760 406 633 q 418 790 418 779 q 326 979 418 978 q 226 910 267 979 q 178 717 186 840 m 678 278 l 679 310 q 769 546 696 461 q 963 631 842 631 q 1116 560 1058 631 q 1174 354 1174 489 l 1172 307 q 1087 85 1158 171 q 913 -1 1015 -1 q 893 0 903 -1 q 734 81 790 6 q 678 278 678 156 m 1222 278 l 1224 310 q 1313 546 1240 461 q 1507 631 1386 631 q 1660 560 1603 631 q 1718 354 1718 489 l 1717 307 q 1631 85 1703 171 q 1457 -1 1560 -1 q 1438 0 1447 -1 q 1278 81 1335 6 q 1222 278 1222 156 m 806 268 q 897 76 806 81 q 904 76 900 76 q 997 142 958 76 q 1044 332 1036 207 q 1049 364 1049 361 q 956 551 1049 550 q 856 483 896 551 q 807 290 817 414 q 806 268 806 281 m 1350 268 q 1442 76 1350 81 q 1449 76 1444 76 q 1542 142 1503 76 q 1589 332 1581 207 q 1593 364 1593 361 q 1500 551 1593 550 q 1401 483 1440 551 q 1351 290 1361 414 q 1350 268 1350 281 z "},"โน":{"ha":431,"x_min":28,"x_max":407,"o":"m 268 0 l 28 332 l 315 672 l 407 672 l 213 332 l 361 0 l 268 0 z "},"โบ":{"ha":431,"x_min":28,"x_max":394,"o":"m 28 0 l 210 332 l 49 672 l 140 672 l 394 332 l 121 0 l 28 0 z "},"โ":{"ha":833,"x_min":3,"x_max":893,"o":"m 778 1057 l 893 1057 l 118 -139 l 3 -139 l 778 1057 z "},"โฌ":{"ha":833,"x_min":-40,"x_max":938,"o":"m 726 804 l 725 822 q 724 832 725 826 q 689 904 717 881 l 692 906 q 585 935 656 932 l 583 935 q 403 849 482 935 q 285 629 324 764 l 610 629 l 581 531 l 263 531 q 257 476 260 513 l 554 476 l 525 378 l 256 378 q 319 193 263 267 q 491 119 375 119 q 713 192 607 119 q 890 381 818 265 l 938 296 q 732 77 856 163 q 458 -8 608 -8 q 165 97 278 -8 q 42 378 51 203 l -40 378 l -40 476 l 44 476 q 51 531 46 494 l -39 531 l -39 629 l 74 629 q 257 937 128 817 q 565 1057 386 1057 q 776 1004 704 1057 q 850 869 847 951 q 856 804 856 836 l 726 804 z "},"โข":{"ha":1686,"x_min":0,"x_max":1856,"o":"m 1478 1047 q 1560 1058 1507 1058 q 1654 1051 1613 1058 q 1587 473 1611 732 q 1560 200 1563 214 q 1558 175 1558 186 q 1593 139 1560 139 q 1825 331 1676 139 q 1856 232 1851 257 q 1695 59 1789 126 q 1518 -8 1601 -8 q 1403 35 1435 -8 q 1371 131 1371 78 q 1374 179 1371 143 q 1429 629 1378 215 l 1201 103 l 1083 103 l 1015 621 l 918 190 q 841 39 894 88 q 724 -10 788 -10 q 619 28 660 -10 q 576 142 576 68 q 804 393 576 289 q 938 1050 928 986 q 1027 1058 971 1058 q 1104 1056 1083 1058 l 1114 1056 l 1200 410 l 1478 1040 l 1478 1047 m 361 892 q 275 786 332 828 q 151 744 218 744 q 42 783 85 744 q 0 899 0 822 q 68 1016 0 975 q 228 1057 136 1057 l 779 1057 q 783 1019 783 1038 q 753 932 783 972 q 660 892 722 892 q 656 892 657 892 l 361 892 m 181 892 q 129 856 129 892 q 174 826 129 826 q 223 844 194 826 q 271 892 251 863 l 181 892 m 222 -6 q 102 40 147 -6 q 57 156 57 86 q 304 433 57 318 l 353 803 q 485 839 410 839 q 551 832 519 839 l 468 267 q 222 -6 433 -6 m 160 171 q 208 121 160 121 q 278 228 264 121 l 289 315 q 160 171 160 240 m 675 165 q 710 121 675 121 q 749 158 733 121 q 781 279 768 204 q 675 165 675 219 z "},"โ":{"ha":833,"x_min":6,"x_max":883,"o":"m 629 -137 l 514 -137 l 635 938 l 290 938 l 169 -137 l 54 -137 l 175 938 l 6 938 l 22 1057 l 883 1057 l 868 938 l 750 938 l 629 -137 z "},"โ":{"ha":833,"x_min":-71,"x_max":867,"o":"m 476 403 l 478 403 l 476 401 l 478 400 l 476 400 l 103 -56 l 735 -56 l 711 -175 l -71 -175 l -44 -56 l 331 401 l 63 882 l 88 1000 l 867 1000 l 843 881 l 210 881 l 476 403 z "},"โ":{"ha":738,"x_min":22,"x_max":690,"o":"m 35 579 l 690 579 l 678 460 l 22 460 l 35 579 z "},"โ":{"ha":833,"x_min":-125,"x_max":936,"o":"m -99 219 l -125 271 l 85 494 l 278 81 l 854 1061 l 936 1061 l 235 -106 l 40 364 l -99 219 z "},"โ":{"ha":833,"x_min":-125,"x_max":933,"o":"m 128 158 q -58 245 10 158 q -125 460 -125 332 q -58 682 -125 588 q 144 776 8 776 q 267 732 199 776 q 422 593 324 700 q 536 731 476 686 q 681 776 596 776 q 866 690 799 776 q 933 475 933 603 q 869 253 933 347 q 682 158 806 158 q 678 158 679 158 q 560 193 619 158 l 560 192 q 386 343 500 222 q 272 203 332 249 q 128 158 213 158 m 688 361 q 772 399 742 363 q 803 490 803 436 q 772 583 803 543 q 688 624 740 624 q 683 624 685 624 q 507 496 578 618 q 607 392 571 421 q 688 361 643 363 m 121 574 q 36 535 67 572 q 6 445 6 499 q 37 351 6 392 q 121 311 68 311 q 125 311 124 311 q 301 439 231 317 q 201 544 236 515 q 121 574 165 572 z "},"โซ":{"ha":833,"x_min":100,"x_max":714,"o":"m 496 1010 q 533 1014 517 1014 q 665 981 621 1014 q 714 887 714 942 q 664 806 714 832 q 613 789 632 789 q 582 799 593 789 q 588 843 588 817 q 561 896 588 869 q 522 836 529 890 q 518 782 521 826 l 485 32 q 428 -112 481 -61 q 289 -164 375 -164 q 256 -160 272 -164 q 142 -117 183 -153 q 101 -33 101 -82 q 133 42 101 15 q 193 68 164 68 q 243 57 225 68 q 233 6 233 32 q 256 -47 233 -21 q 311 125 303 -33 q 340 817 317 293 q 387 951 344 903 q 493 1010 429 999 l 496 1010 z "},"โ":{"ha":833,"x_min":75,"x_max":756,"o":"m 249 682 q 292 676 261 682 q 435 619 322 671 q 583 568 547 568 q 694 667 656 568 l 756 667 q 686 489 742 546 q 561 432 631 432 q 381 486 492 432 q 233 540 267 540 q 170 523 200 540 q 136 463 140 506 l 75 463 q 135 627 81 572 q 249 682 189 682 m 249 411 q 292 406 261 411 q 435 349 322 400 q 583 297 547 297 q 694 396 656 297 l 756 396 q 686 218 742 275 q 561 161 631 161 q 381 214 492 161 q 233 269 267 269 q 170 252 200 269 q 136 192 140 235 l 75 192 q 135 356 81 301 q 249 411 189 411 z "},"โ":{"ha":728,"x_min":0,"x_max":701,"o":"m 672 418 l 657 299 l 358 299 l 228 -139 l 113 -139 l 243 299 l 0 299 l 18 418 l 279 418 l 318 549 l 31 549 l 47 668 l 354 668 l 471 1057 l 586 1057 l 469 668 l 701 668 l 686 549 l 433 549 l 394 418 l 672 418 z "},"โค":{"ha":969,"x_min":39,"x_max":942,"o":"m 875 301 l 858 168 l 54 592 l 942 906 l 924 768 l 344 569 l 875 301 m 57 119 l 858 119 l 843 0 l 39 0 l 57 119 z "},"โฅ":{"ha":954,"x_min":24,"x_max":926,"o":"m 57 306 l 636 504 l 106 772 l 122 906 l 926 482 l 39 168 l 57 306 m 42 119 l 843 119 l 828 0 l 24 0 l 42 119 z "},"โ":{"ha":885,"x_min":72,"x_max":769,"o":"m 72 390 l 458 753 l 769 390 l 383 42 l 72 390 m 636 390 l 442 606 l 206 390 l 400 175 l 636 390 z "},"๏ฌ":{"ha":881,"x_min":22,"x_max":1040,"o":"m 421 -1 q 497 -224 497 -136 q 444 -367 497 -312 q 304 -422 390 -422 q 163 -374 218 -422 q 108 -242 108 -326 q 114 -175 108 -225 l 157 200 q 22 375 75 310 q 101 440 69 440 q 130 425 117 440 q 175 368 143 410 l 228 835 q 272 983 239 926 q 436 1057 317 1057 q 565 1010 521 1057 q 610 882 610 964 q 538 665 610 772 q 372 478 467 558 l 338 143 q 404 117 361 117 q 619 314 538 117 l 654 615 q 707 653 668 640 q 784 667 746 667 q 851 657 822 667 q 797 235 797 239 q 790 188 790 207 q 792 156 790 169 q 844 119 799 119 q 927 178 889 119 q 985 313 965 238 q 1015 279 994 307 q 1040 238 1036 251 q 947 58 1013 126 q 775 -10 879 -10 q 667 21 713 -10 q 607 110 621 51 q 421 -1 533 22 m 867 867 q 851 851 867 867 q 789 835 835 835 q 711 867 743 835 q 679 944 679 899 q 711 1023 679 990 q 789 1056 743 1056 q 867 1023 835 1056 q 900 944 900 990 q 867 867 900 899 m 486 936 q 472 938 479 938 q 422 889 435 938 q 392 665 410 840 l 386 613 q 483 742 446 674 q 519 867 519 811 q 486 936 519 924 m 300 -211 q 299 -241 299 -218 q 313 -279 299 -264 q 349 -294 326 -294 q 390 -276 372 -294 q 408 -218 408 -257 q 321 -17 408 -144 l 300 -211 z "},"๏ฌ":{"ha":985,"x_min":22,"x_max":1144,"o":"m 421 -1 q 497 -224 497 -136 q 444 -367 497 -312 q 304 -422 390 -422 q 163 -374 218 -422 q 108 -242 108 -326 q 114 -175 108 -225 l 157 200 q 22 375 75 310 q 101 440 69 440 q 130 425 117 440 q 175 368 143 410 l 228 835 q 272 983 239 926 q 436 1057 317 1057 q 565 1010 521 1057 q 610 882 610 964 q 538 665 610 772 q 372 478 467 558 l 338 143 q 404 117 361 117 q 626 331 542 117 l 685 829 q 789 1036 704 993 q 882 1057 828 1057 q 1065 888 1065 1057 q 1064 858 1065 874 q 831 479 1050 672 q 817 347 824 411 q 799 189 799 204 q 861 117 799 117 q 988 195 929 117 q 1079 396 1047 274 q 1114 373 1092 392 q 1144 340 1136 354 q 1044 119 1122 225 q 946 31 1006 65 q 803 -10 878 -10 q 615 119 642 -10 q 421 -1 536 21 m 486 936 q 472 938 479 938 q 422 889 435 938 q 392 665 410 840 l 386 613 q 483 742 446 674 q 519 867 519 811 q 486 936 519 924 m 846 618 q 974 869 974 758 q 924 936 974 936 q 881 894 892 933 q 863 781 871 856 q 856 700 856 707 q 850 660 853 679 l 846 618 m 300 -211 q 299 -241 299 -218 q 313 -279 299 -264 q 349 -294 326 -294 q 390 -276 372 -294 q 408 -218 408 -257 q 321 -17 408 -144 l 300 -211 z "}}}
